
<svg width="124px" height="166px" viewBox="0 0 124 166" version="1.1" xmlns="http://www.w3.org/2000/svg" xmlns:xlink="http://www.w3.org/1999/xlink">
    <!-- Generator: Sketch 50 (54983) - http://www.bohemiancoding.com/sketch -->
    <desc>Created with Sketch.</desc>
    <defs>
        <polygon id="path-1" points="0 0.9401 5.7817 0.9401 5.7817 9 0 9"></polygon>
        <polygon id="path-3" points="0.1874 0.725 7.5514 0.725 7.5514 8.9642 0.1874 8.9642"></polygon>
    </defs>
    <g id="Page-1" stroke="none" stroke-width="1" fill="none" fill-rule="evenodd">
        <g id="docs">
            <g id="_01_copy">
                <path d="M6,40 L6,34 L8,34 L8,38 L38,38 L38,10 L30,10 L30,2 L8,2 L8,14 L6,14 L6,0 L31.855,0 L40,8.143 L40,40 L6,40 Z M32,3 L32,8 L37,8 L32,3 Z" id="Shape" fill="#CACACA"></path>
                <rect id="Rounded_Rectangle_822" fill="#E01300" fill-rule="nonzero" x="0" y="16" width="33" height="16" rx="2"></rect>
                <path d="M27,23 L27,25 L24,25 L24,28 L22,28 L22,20 L27,20 L27,22 L24,22 L24,23 L27,23 Z M17,28 L14,28 L14,20 L17,20 C19.209139,20 21,21.790861 21,24 C21,26.209139 19.209139,28 17,28 Z M17,22 L16,22 L16,26 L17,26 C18.1045695,26 19,25.1045695 19,24 C19,22.8954305 18.1045695,22 17,22 Z M10.5,25 L8,25 L8,28 L6,28 L6,20 L10.5,20 C11.8807119,20 13,21.1192881 13,22.5 C13,23.8807119 11.8807119,25 10.5,25 Z M10.5,22 L8,22 L8,23 L10.5,23 C10.7761424,23 11,22.7761424 11,22.5 C11,22.2238576 10.7761424,22 10.5,22 Z" id="Rectangle_562_copy_4" fill="#FFFFFF"></path>
            </g>
            <g id="_02_copy" transform="translate(42.000000, 0.000000)">
                <path d="M6,40 L6,34 L8,34 L8,38 L38,38 L38,10 L30,10 L30,2 L8,2 L8,14 L6,14 L6,0 L31.855,0 L40,8.143 L40,40 L6,40 Z M32,3 L32,8 L37,8 L32,3 Z" id="Rectangle_655_copy" fill="#CACACA"></path>
                <rect id="Rounded_Rectangle_822-2" fill="#3387DE" fill-rule="nonzero" x="0" y="16" width="33" height="16" rx="2"></rect>
            </g>
            <g id="_03_copy_3" transform="translate(84.000000, 0.000000)">
                <path d="M6,40 L6,34 L8,34 L8,38 L38,38 L38,10 L30,10 L30,2 L8,2 L8,14 L6,14 L6,0 L31.855,0 L40,8.143 L40,40 L6,40 Z M32,3 L32,8 L37,8 L32,3 Z" id="Rectangle_655_copy_2" fill="#CACACA"></path>
                <rect id="Rounded_Rectangle_822-3" fill="#4BA433" fill-rule="nonzero" x="0" y="16" width="33" height="16" rx="2"></rect>
            </g>
            <g id="_04_copy_2" transform="translate(0.000000, 42.000000)">
                <path d="M6,40 L6,34 L8,34 L8,38 L38,38 L38,10 L30,10 L30,2 L8,2 L8,14 L6,14 L6,0 L31.855,0 L40,8.142 L40,40 L6,40 Z M32,3 L32,8 L37,8 L32,3 Z" id="Rectangle_655_copy_3" fill="#CACACA"></path>
                <rect id="Rounded_Rectangle_822-4" fill="#3387DE" fill-rule="nonzero" x="0" y="16" width="33" height="16" rx="2"></rect>
            </g>
            <g id="_05_copy_2" transform="translate(42.000000, 42.000000)">
                <path d="M6,40 L6,34 L8,34 L8,38 L38,38 L38,10 L30,10 L30,2 L8,2 L8,14 L6,14 L6,0 L31.855,0 L40,8.142 L40,40 L6,40 Z M32,3 L32,8 L37,8 L32,3 Z" id="Rectangle_655_copy_4" fill="#CACACA"></path>
                <rect id="Rounded_Rectangle_822-5" fill="#DA0F0F" fill-rule="nonzero" x="0" y="16" width="33" height="16" rx="2"></rect>
            </g>
            <g id="_06_copy_2" transform="translate(84.000000, 42.000000)">
                <path d="M6,40 L6,34 L8,34 L8,38 L38,38 L38,10 L30,10 L30,2 L8,2 L8,14 L6,14 L6,0 L31.855,0 L40,8.142 L40,40 L6,40 Z M32,3 L32,8 L37,8 L32,3 Z" id="Rectangle_655_copy_5" fill="#CACACA"></path>
                <rect id="Rounded_Rectangle_822-6" fill="#2659BE" fill-rule="nonzero" x="0" y="16" width="33" height="16" rx="2"></rect>
            </g>
            <g id="_07_copy" transform="translate(0.000000, 84.000000)">
                <path d="M6,40 L6,34 L8,34 L8,38 L38,38 L38,10 L30,10 L30,2 L8,2 L8,14 L6,14 L6,0 L31.855,0 L40,8.143 L40,40 L6,40 Z M32,3 L32,8 L37,8 L32,3 Z" id="Rectangle_655_copy_6" fill="#CACACA"></path>
                <rect id="Rounded_Rectangle_822-7" fill="#785CB5" fill-rule="nonzero" x="0" y="16" width="33" height="16" rx="2"></rect>
            </g>
            <g id="_08_copy" transform="translate(42.000000, 84.000000)">
                <path d="M6,40 L6,34 L8,34 L8,38 L38,38 L38,10 L30,10 L30,2 L8,2 L8,14 L6,14 L6,0 L31.855,0 L40,8.143 L40,40 L6,40 Z M32,3 L32,8 L37,8 L32,3 Z" id="Rectangle_655_copy_7" fill="#CACACA"></path>
                <rect id="Rounded_Rectangle_822-8" fill="#3387DE" fill-rule="nonzero" x="0" y="16" width="33" height="16" rx="2"></rect>
            </g>
            <g id="_09_copy" transform="translate(84.000000, 84.000000)">
                <path d="M6,40 L6,34 L8,34 L8,38 L38,38 L38,10 L30,10 L30,2 L8,2 L8,14 L6,14 L6,0 L31.855,0 L40,8.143 L40,40 L6,40 Z M32,3 L32,8 L37,8 L32,3 Z" id="Rectangle_655_copy_8" fill="#CACACA"></path>
                <rect id="Rounded_Rectangle_822-9" fill="#C0432A" fill-rule="nonzero" x="0" y="16" width="33" height="16" rx="2"></rect>
            </g>
            <g id="_07_copy_2" transform="translate(0.000000, 126.000000)">
                <path d="M6,40 L6,34 L8,34 L8,38 L38,38 L38,10 L30,10 L30,2 L8,2 L8,14 L6,14 L6,0 L31.855,0 L40,8.142 L40,40 L6,40 Z M32,3 L32,8 L37,8 L32,3 Z" id="Rectangle_655_copy_6-2" fill="#CACACA"></path>
                <rect id="Rounded_Rectangle_822-10" fill="#039200" fill-rule="nonzero" x="0" y="16" width="33" height="16" rx="2"></rect>
            </g>
            <g id="_09_copy_2" transform="translate(42.000000, 126.000000)">
                <path d="M6,40 L6,34 L8,34 L8,38 L38,38 L38,10 L30,10 L30,2 L8,2 L8,14 L6,14 L6,0 L31.855,0 L40,8.142 L40,40 L6,40 Z M32,3 L32,8 L37,8 L32,3 Z" id="Rectangle_655_copy_8-2" fill="#CACACA"></path>
                <rect id="Rounded_Rectangle_822-11" fill="#DF2649" fill-rule="nonzero" x="0" y="16" width="33" height="16" rx="2"></rect>
            </g>
            <path d="M90,166 L90,160 L92,160 L92,164 L122,164 L122,136 L114,136 L114,128 L92,128 L92,140 L90,140 L90,126 L115.855,126 L124,134.142 L124,166 L90,166 Z M116,129 L116,134 L121,134 L116,129 Z" id="Rectangle_655_copy_21" fill="#CACACA"></path>
            <rect id="Rounded_Rectangle_822_copy" fill="#D24628" fill-rule="nonzero" x="84" y="142" width="33" height="16" rx="2"></rect>
            <path d="M69.325,22.512 C68.9619638,22.1831606 68.4898266,22.0007196 68,22 C67.1063656,21.9944464 66.3174932,22.5824095 66.0674525,23.4403681 C65.8174117,24.2983267 66.1668896,25.2180469 66.9235892,25.6934615 C67.6802888,26.1688761 68.6605527,26.0845978 69.325,25.487 L70.435,27.153 C68.7933283,28.4340505 66.4434216,28.2412959 65.0324493,26.7098477 C63.621477,25.1783995 63.621477,22.8206005 65.0324493,21.2891523 C66.4434216,19.7577041 68.7933283,19.5649495 70.435,20.846 L69.325,22.512 Z M59,28 C56.790861,28 55,26.209139 55,24 C55,21.790861 56.790861,20 59,20 C61.209139,20 63,21.790861 63,24 C63,26.209139 61.209139,28 59,28 Z M59,22 C57.8954305,22 57,22.8954305 57,24 C57,25.1045695 57.8954305,26 59,26 C60.1045695,26 61,25.1045695 61,24 C61,22.8954305 60.1045695,22 59,22 Z M50,28 L47,28 L47,20 L50,20 C52.209139,20 54,21.790861 54,24 C54,26.209139 52.209139,28 50,28 Z M50,22 L49,22 L49,26 L50,26 C51.1045695,26 52,25.1045695 52,24 C52,22.8954305 51.1045695,22 50,22 Z" id="Ellipse_224_copy_3" fill="#FFFFFF"></path>
            <path d="M107.451,22.875 C107.597961,22.936597 107.749826,22.9857691 107.905,23.022 C108.076,23.085 108.265,23.122 108.472,23.185 C108.902,23.3316667 109.276,23.477 109.594,23.621 C109.882895,23.7456708 110.150737,23.9143369 110.388,24.121 C110.594683,24.3065097 110.75585,24.5371403 110.859,24.795 C110.970321,25.09521 111.02327,25.4139217 111.015,25.734 C111.04396,26.3901858 110.738244,27.0163005 110.203,27.397 C109.468387,27.8431382 108.613306,28.0500072 107.756,27.989 C107.424672,27.9909146 107.093591,27.9705353 106.765,27.928 C106.501693,27.8933628 106.240595,27.8436141 105.983,27.779 C105.784167,27.7289554 105.588762,27.6661588 105.398,27.591 C105.257574,27.5353443 105.120064,27.4725969 104.986,27.403 L105.511,25.564 C105.80368,25.7065002 106.109868,25.8193945 106.425,25.901 C106.860212,26.0088223 107.307719,26.0589188 107.756,26.05 C107.933048,26.0556099 108.109955,26.0350551 108.281,25.989 C108.427164,25.9593087 108.566747,25.9034077 108.693,25.824 C108.787426,25.7637548 108.862163,25.6771993 108.908,25.575 C108.94973,25.5168829 108.970848,25.4464903 108.968,25.375 C108.968,25.125 108.84,25.105 108.586,24.939 C108.20467,24.7694578 107.805977,24.6420368 107.397,24.559 C107.127,24.471 106.697,24.369 106.429,24.259 C106.167443,24.1499436 105.922407,24.0048744 105.701,23.828 C105.485926,23.6549211 105.307458,23.4407594 105.176,23.198 C105.034574,22.9196408 104.965778,22.6100587 104.976,22.298 C104.970935,21.9668023 105.044625,21.6391395 105.191,21.342 C105.335175,21.0567495 105.543657,20.8088995 105.8,20.618 C106.08705,20.4069936 106.410913,20.2513358 106.755,20.159 C107.220409,20.0481428 107.697593,19.9944135 108.176,19.999 C108.662876,19.9904365 109.148749,20.046253 109.621,20.165 C109.965488,20.2536074 110.300431,20.3758619 110.621,20.53 L110.083,22.014 C109.821,21.966 109.783,22.025 109.314,21.94 C108.97854,21.8649455 108.636624,21.8224154 108.293,21.813 C107.96346,21.7897565 107.633294,21.8485061 107.332,21.984 C107.140677,22.0283274 106.998288,22.1887659 106.977,22.384 C106.972766,22.4913355 107.011242,22.5959744 107.084,22.675 C107.194746,22.7610245 107.31868,22.8285639 107.451,22.875 Z M99,28 L99,20 L101,20 L101,26 L104,26 L104,28 L99,28 Z M95.559,28 L94,25.759 L92.44,28 L89.991,28 L92.775,24 L89.991,20 L92.44,20 L94,22.24 L95.559,20 L98.009,20 L95.225,24 L98.009,28 L95.559,28 Z" id="Rectangle_565_copy_2" fill="#FFFFFF"></path>
            <path d="M27,65 L27,67 L24,67 L24,70 L22,70 L22,62 L27,62 L27,64 L24,64 L24,65 L27,65 Z M19,70 L17,70 L17,64 L15,64 L15,62 L21,62 L21,64 L19,64 L19,70 Z M11.7,70 L9.98,67 L9,67 L9,70 L7,70 L7,61.9999978 L11.5,62 C12.7389235,61.9983552 13.7912282,62.9064193 13.9709351,64.1322413 C14.150642,65.3580633 13.4032625,66.5299632 12.216,66.884 L14,70 L11.7,70 Z M11.5,64 L9,64 L9,65 L11.5,65 C11.7761424,65 12,64.7761424 12,64.5 C12,64.2238576 11.7761424,64 11.5,64 Z" id="Rectangle_566_copy" fill="#FFFFFF"></path>
            <path d="M111,65 L111,67 L108,67 L108,70 L106,70 L106,62 L111,62 L111,64 L108,64 L108,65 L111,65 Z M102,70 L100,70 L100,62 L105,62 L105,64 L102,64 L102,65 L105,65 L105,67 L102,67 L102,70 Z M96,62 L98,62 L98,70 L96,70 L96,62 Z M93,70 L91,70 L91,64 L89,64 L89,62 L95,62 L95,64 L93,64 L93,70 Z" id="Rectangle_569_copy" fill="#FFFFFF"></path>
            <path d="M27,110 L27,112 L22,112 L22,104 L27,104 L27,106 L24,106 L24,107 L27,107 L27,109 L24,109 L24,110 L27,110 Z M16,112 L16,104 L18,104 L18,110 L21,110 L21,112 L16,112 Z M12,104 L14,104 L14,112 L12,112 L12,104 Z M7,112 L5,112 L5,104 L10,104 L10,106 L7,106 L7,107 L10,107 L10,109 L7,109 L7,112 Z" id="Rectangle_576_copy" fill="#FFFFFF"></path>
            <path d="M67,106 L67,112 L65,112 L65,106 L63,106 L63,104 L69,104 L69,106 L67,106 Z M59.559,112 L58,109.759 L56.44,112 L53.991,112 L56.775,108 L53.991,104 L56.44,104 L58,106.24 L59.559,104 L62.009,104 L59.225,108 L62.009,112 L59.559,112 Z M51,112 L49,112 L49,106 L47,106 L47,104 L53,104 L53,106 L51,106 L51,112 Z" id="Rectangle_577_copy_2" fill="#FFFFFF"></path>
            <path d="M111,112 L109,112 C107.192547,112.00302 105.607638,110.793582 105.133436,109.049442 C104.659234,107.305301 105.413574,105.459861 106.973734,104.547285 C108.533893,103.634708 110.512186,103.881762 111.8,105.15 L110.559,106.75 L110.538,106.739 C109.867212,105.910683 108.664693,105.753956 107.804006,106.382671 C106.943319,107.011387 106.726914,108.204611 107.311998,109.095534 C107.897082,109.986456 109.078052,110.262001 109.997,109.722 L109.997,108 L111.997,108 L111.997,111 L111,112 Z M102.531,112 L99,107.324 L99,112 L97,112 L97,104 L98.469,104 L102,108.675 L102,104 L104,104 L104,112 L102.531,112 Z M93.5,109 L91,109 L91,112 L89,112 L89,104 L93.5,104 C94.8807119,104 96,105.119288 96,106.5 C96,107.880712 94.8807119,109 93.5,109 Z M93.5,106 L91,106 L91,107 L93.5,107 C93.7761424,107 94,106.776142 94,106.5 C94,106.223858 93.7761424,106 93.5,106 Z" id="Rectangle_578_copy_3" fill="#FFFFFF"></path>
            <path d="M22,154 L20,154 L20,146 L25,146 L25,148 L22,148 L22,149 L25,149 L25,151 L22,151 L22,154 Z M16,146 L18,146 L18,154 L16,154 L16,146 Z M13,154 L11,154 C9.19224635,154.003478 7.60684463,152.794046 7.13247549,151.049638 C6.65810634,149.30523 7.41268795,147.459469 8.97324735,146.546978 C10.5338068,145.634487 12.5124217,145.882092 13.8,147.151 L12.559,148.751 L12.538,148.741 C11.8672117,147.912683 10.6646931,147.755956 9.80400594,148.384671 C8.9433188,149.013387 8.72691443,150.206611 9.31199839,151.097534 C9.89708235,151.988456 11.0780522,152.264001 11.997,151.724 L11.997,150 L13.997,150 L13.997,153 L13,154 Z" id="Rectangle_578_copy_2" fill="#FFFFFF"></path>
            <path d="M68.5,151 L66,151 L66,154 L64,154 L64,146 L68.5,146 C69.8807119,146 71,147.119288 71,148.5 C71,149.880712 69.8807119,151 68.5,151 Z M68.5,148 L66,148 L66,149 L68.5,149 C68.7761424,149 69,148.776142 69,148.5 C69,148.223858 68.7761424,148 68.5,148 Z M60.987,149.407 L59.01,152.529 L56.981,149.429 L57,154 L55,154.01 L55,146 L57.2,146 L59,149.1 L60.8,146 L63,146 L63,154.015 L61,154.005 L60.987,149.407 Z M59,152.544 L59.01,152.529 L59.02,152.544 L59,152.544 Z M54,151.5 C54,152.880712 52.8807119,154 51.5,154 L47,154 L47,146 L51.5,146 C52.8807119,146 54,147.119288 54,148.5 C53.9144714,149.126948 53.5458258,149.679917 53,150 C53.5814805,150.280747 53.9644955,150.855269 54,151.5 Z M51.5,148 L49,148 L49,149 L51.5,149 C51.7761424,149 52,148.776142 52,148.5 C52,148.223858 51.7761424,148 51.5,148 Z M51.5,151 L49,151 L49,152 L51.5,152 C51.7761424,152 52,151.776142 52,151.5 C52,151.223858 51.7761424,151 51.5,151 Z" id="Rounded_Rectangle_904_copy" fill="#FFFFFF"></path>
            <path d="M94.5,151 L92,151 L92,154 L90,154 L90,146 L94.5,146 C95.8807119,146 97,147.119288 97,148.5 C97,149.880712 95.8807119,151 94.5,151 Z M94.5,148 L92,148 L92,149 L94.5,149 C94.7761424,149 95,148.776142 95,148.5 C95,148.223858 94.7761424,148 94.5,148 Z M102.5,151 L100,151 L100,154 L98,154 L98,146 L102.5,146 C103.880712,146 105,147.119288 105,148.5 C105,149.880712 103.880712,151 102.5,151 Z M102.5,148 L100,148 L100,149 L102.5,149 C102.776142,149 103,148.776142 103,148.5 C103,148.223858 102.776142,148 102.5,148 Z M110,148 L110,154 L108,154 L108,148 L106,148 L106,146 L112,146 L112,148 L110,148 Z" id="Rounded_Rectangle_902_copy_3" fill="#FFFFFF"></path>
        </g>
        <g id="Artboard-1" transform="translate(51.000000, 62.000000)">
            <g id="Group-3" transform="translate(0.000000, -0.724610)">
                <mask id="mask-2" fill="white">
                    <use xlink:href="#path-1"></use>
                </mask>
                <g id="Clip-2"></g>
                <path d="M0.4077,6.8291 C0.7437,6.9971 1.5237,7.2971 2.2667,7.2971 C3.0337,7.2971 3.5377,7.0211 3.5377,6.4701 C3.5377,5.8341 2.8787,5.5341 2.1707,5.5341 L1.3557,5.5341 L1.3557,3.9991 L2.1227,3.9991 C2.6627,3.9991 3.3467,3.8311 3.3467,3.2911 C3.3467,2.8951 2.9747,2.6321 2.3027,2.6321 C1.6437,2.6321 0.9477,2.9071 0.6357,3.0751 L0.2277,1.5281 C0.7197,1.2281 1.7147,0.9401 2.7947,0.9401 C4.5217,0.9401 5.5407,1.8041 5.5407,2.9191 C5.5407,3.7471 5.0737,4.3831 4.1147,4.7181 L4.1147,4.7421 C5.0367,4.8981 5.7817,5.5941 5.7817,6.5891 C5.7817,8.0291 4.4617,9.0001 2.4477,9.0001 C1.3797,9.0001 0.4917,8.7481 -0.0003,8.4481 L0.4077,6.8291 Z" id="Fill-1" fill="#FFFFFE" mask="url(#mask-2)"></path>
            </g>
            <g id="Group-6" transform="translate(7.000000, -0.724610)">
                <mask id="mask-4" fill="white">
                    <use xlink:href="#path-3"></use>
                </mask>
                <g id="Clip-5"></g>
                <path d="M2.3584,7.2612 C2.4664,7.2852 2.6704,7.2852 2.8144,7.2852 C4.2174,7.3092 5.2604,6.5292 5.2604,4.7062 C5.2604,3.1232 4.3134,2.3802 3.0184,2.3802 C2.6824,2.3802 2.4664,2.4042 2.3584,2.4282 L2.3584,7.2612 Z M0.1874,0.9042 C0.8834,0.7842 1.8064,0.7242 2.7664,0.7242 C4.3134,0.7242 5.2964,0.9762 6.0884,1.5282 C6.9764,2.1392 7.5514,3.1472 7.5514,4.6342 C7.5514,6.2892 6.9274,7.3572 6.1484,7.9692 C5.2604,8.6642 3.9294,8.9642 2.3464,8.9642 C1.3034,8.9642 0.6074,8.8922 0.1874,8.8202 L0.1874,0.9042 Z" id="Fill-4" fill="#FFFFFE" mask="url(#mask-4)"></path>
            </g>
        </g>
    </g>
</svg>