<?xml version="1.0" encoding="utf-8"?>
<!-- Generator: Adobe Illustrator 24.2.3, SVG Export Plug-In . SVG Version: 6.00 Build 0)  -->
<svg version="1.1" id="Layer_1" xmlns="http://www.w3.org/2000/svg" xmlns:xlink="http://www.w3.org/1999/xlink" x="0px" y="0px"
	 viewBox="0 0 80 80" style="enable-background:new 0 0 80 80;" xml:space="preserve">
<style type="text/css">
	.st0{fill-rule:evenodd;clip-rule:evenodd;fill:#FDC700;}
	.st1{fill-rule:evenodd;clip-rule:evenodd;fill:#6DC40F;}
	.st2{fill-rule:evenodd;clip-rule:evenodd;fill:#F63D24;}
	.st3{fill-rule:evenodd;clip-rule:evenodd;fill:#DF1B7D;}
	.st4{fill-rule:evenodd;clip-rule:evenodd;fill:#009BDA;}
	.st5{fill-rule:evenodd;clip-rule:evenodd;fill:#6E44B2;}
	.st6{fill-rule:evenodd;clip-rule:evenodd;fill:#566702;}
	.st7{fill-rule:evenodd;clip-rule:evenodd;fill:#570F6D;}
</style>
<desc>Created with Sketch.</desc>
<path class="st0" d="M42.9,62.3c-0.3-1.9-2-3.1-3.9-2.9c-1.9,0.3-3.1,2-2.9,3.9c0.3,1.9,2,3.1,3.9,2.9
	C41.9,65.9,43.2,64.1,42.9,62.3L42.9,62.3z"/>
<path class="st1" d="M29.8,20.5c-0.2-1.5-1.7-2.6-3.2-2.4c-1.5,0.2-2.6,1.7-2.4,3.2c0.2,1.5,1.7,2.6,3.2,2.4
	C28.9,23.5,30,22,29.8,20.5L29.8,20.5z"/>
<path class="st2" d="M19.8,48.2c-0.2-1.1-1.2-1.8-2.2-1.6c-1.1,0.2-1.8,1.2-1.6,2.2c0.2,1.1,1.2,1.8,2.2,1.6
	C19.2,50.2,19.9,49.2,19.8,48.2L19.8,48.2z"/>
<path class="st3" d="M22.4,29.5c-1.2,3.2-1.7,6.6-1.5,10.1l3.3,3.2c1.2,1.2,1.7,2.7,1.4,4.4l-0.8,4.7c1.9,2.9,4.3,5.4,7.2,7.4
	c3.2-1.5,6.2-3,7-4.7c-0.2,0.2-0.6,0.6-0.9,0.7c0.5-0.8,1.4-2.9,0.5-4.1c-0.1-0.1-0.1-0.2-0.2-0.2c0.2-0.1,0.4-0.1,0.6,0
	c-0.3-0.2-0.7-0.2-1,0c-0.2,0.1-0.2,0.3-0.3,0.3c-0.1,0-0.5-0.5-0.6-0.6l0.2,0.4c-0.3,0.4-0.7,0.9-0.9,1.4c-0.1-0.2-0.1-0.5-0.1-0.8
	c-0.2,0.7,0,1.3,0.3,1.9c0.2,0.3,0.4,0.4,0.3,0.5c-0.4,0.1-0.6-0.4-0.9-0.4c-0.3,0.1-0.4,0.9-0.6,0.8c-0.2-0.1,0.1-0.9,0.1-1
	c-0.1,0-0.7,0.8-0.9,0.7c-0.2-0.1,0.6-1,0.5-1c-0.1-0.1-0.9,0.6-1.1,0.4C34,53.7,34.9,53,34.9,53c0-0.1-0.8,0.1-0.8-0.1
	c0-0.1,0.8-0.1,1.2-0.6c0.7-0.7,0.8-1.7,1.4-2.9c0.6-1.1,1.2-1,1.5-1.7c-0.2,0.3-0.5,0.5-0.8,0.6c-0.3-0.9-1.8,1-3.9-0.5
	c0.5,0.5,1.1,0.8,1.8,0.9c-0.7,0.3-1.5,0.4-2.6-0.1c-0.6-0.3-0.9-0.9-1.2-1.4c-0.2,0.1-0.4,0.3-0.4,0.5c-0.2-0.3-0.1-0.6,0.2-0.8
	c-0.4,0-0.8-0.2-1-0.6c0.3,0.2,0.7,0.3,1.1,0.3c-0.2-0.8-0.4-1.6-0.1-2.2c0.2-0.5,0.5-0.9,0.9-1.2c-0.3,0.7-0.3,1.4-0.2,2.2
	c-0.4-2.6,2.7-4.3,4.1-3.3c-0.3-0.1-0.6,0-0.8,0.1c0.2,0,0.5,0.1,0.6,0.2c-0.2-0.1-0.5-0.1-0.7,0c0.8,0.3,0.7,1,1.4,1.1
	c0.6,0.1,0.9-0.2,0.9-0.1c0.1,0.1,0,0.3,0.1,0.6c0.2,0.1,0.5,0,0.6,0c0.2,0.1,0,0.4,0.4,0.6c0.3,0.1,0.3,0.3,0.2,0.5
	c-0.2,0.7-0.9,1-1.1,1.9c0.1-0.3,0.3-0.6,0.5-0.8c0,0.3,0.6,0.7,0.9,0.2c0.3-0.4,0.5-1.2,0.8-1.8c0.4-0.8,0.9-1.4,1.4-2.2
	c-0.2,0.3-0.5,0.6-0.8,0.9c0.3-0.7,0.9-1.7,1-2.7c0.1,0.2,0.1,0.4,0.2,0.7c0-0.6,0-1.3-0.6-1.4c-0.3,0-0.5,0-0.5-0.1
	c0-0.1,0.8-0.1,0.8-0.2c0-0.1-0.9-0.3-0.9-0.5c0.1-0.2,0.9,0.2,1,0.1c0.1-0.2-1-0.8-0.8-1.1c0.1-0.1,0.9,0.8,1.1,0.5
	c0.1-0.1-0.3-1-0.1-1.1c0.2-0.1,0.3,0.4,0.5,0.9c0.5,1.5,1.6,0.1,1.5,0.7c0,0.4-0.8,0.3-1,0.8c-0.3,0.8-0.3,0.9-0.4,1.7
	c-0.2,1.5-0.5,2.9-0.9,4.3c0,0.2-0.1,0.3-0.1,0.5l-0.6-0.2c0.3,0.2,1.3,0.9,1,1.2c-0.4,0.4-0.7,0.7-0.5,1.3c0-0.2,0.1-0.5,0.2-0.6
	c0.2,0.4,0.9,1.1,1.3,1.7c0.1,0.1,0.1,0.2,0.2,0.3c-0.2-0.1-0.5-0.3-0.8-0.3c2.1,1.4,1.8,4.5,0.1,6.1l0,0c0.5-0.2,1-0.7,1.3-1l0,0.1
	c-0.3,2.8,7.3,5.3,9.9,6.6c0.9,0.5,1.8,0.4,2.6-0.2c0.8-0.6,1.2-1.5,1-2.4l-2-11.7c-0.3-1.7,0.2-3.2,1.4-4.4l8.5-8.3
	c0.7-0.7,0.9-1.6,0.6-2.6c-0.3-0.9-1.1-1.6-2-1.7l-11.7-1.7c-1.7-0.2-3-1.2-3.8-2.7l-5.3-10.6c-0.4-0.9-1.3-1.4-2.2-1.4
	c-1,0-1.8,0.5-2.2,1.4l-5.3,10.6c-0.8,1.5-2.1,2.5-3.8,2.7L22.4,29.5z M46.4,28l0.9,1.8c0.1,0.3,0.3,0.4,0.6,0.5l1.9,0.3
	c0.2,0,0.3,0.1,0.3,0.3c0.1,0.2,0,0.3-0.1,0.4l-1.4,1.4c-0.2,0.2-0.3,0.4-0.2,0.7l0.3,1.9c0,0.2,0,0.3-0.2,0.4
	c-0.1,0.1-0.3,0.1-0.4,0l-1.7-0.9c-0.3-0.1-0.5-0.1-0.8,0l-1.7,0.9c-0.1,0.1-0.3,0.1-0.4,0c-0.1-0.1-0.2-0.2-0.2-0.4l0.3-1.9
	c0-0.3,0-0.5-0.2-0.7L42,31.2c-0.1-0.1-0.2-0.3-0.1-0.4c0.1-0.2,0.2-0.3,0.3-0.3l1.9-0.3c0.3,0,0.5-0.2,0.6-0.5l0.9-1.7
	c0.1-0.1,0.2-0.2,0.4-0.2C46.1,27.8,46.3,27.9,46.4,28L46.4,28z M36.4,32.8l0.2,0.5c0,0.1,0.1,0.1,0.2,0.1l0.5,0.1
	c0,0,0.1,0,0.1,0.1c0,0,0,0.1,0,0.1L37,34.1c-0.1,0.1-0.1,0.1-0.1,0.2l0.1,0.5c0,0,0,0.1,0,0.1c0,0-0.1,0-0.1,0l-0.5-0.3
	c-0.1,0-0.1,0-0.2,0l-0.5,0.3c0,0-0.1,0-0.1,0c0,0-0.1-0.1,0-0.1l0.1-0.5c0-0.1,0-0.1-0.1-0.2l-0.4-0.4c0,0,0-0.1,0-0.1
	c0,0,0-0.1,0.1-0.1l0.5-0.1c0.1,0,0.1-0.1,0.2-0.1l0.2-0.5C36.2,32.8,36.2,32.8,36.4,32.8C36.3,32.8,36.4,32.8,36.4,32.8L36.4,32.8z
	 M40.1,23.2l0.3,0.7c0.1,0.1,0.1,0.2,0.2,0.2l0.8,0.1c0.1,0,0.1,0.1,0.1,0.1c0,0.1,0,0.1,0,0.2L41,25c-0.1,0.1-0.1,0.2-0.1,0.3
	l0.1,0.8c0,0.1,0,0.1-0.1,0.2c-0.1,0-0.1,0-0.2,0l-0.7-0.4c-0.1-0.1-0.2-0.1-0.3,0l-0.7,0.4c-0.1,0-0.1,0-0.2,0
	c-0.1,0-0.1-0.1-0.1-0.2l0.1-0.8c0-0.1,0-0.2-0.1-0.3l-0.6-0.5c0,0-0.1-0.1,0-0.2c0-0.1,0.1-0.1,0.1-0.1l0.8-0.1
	c0.1,0,0.2-0.1,0.2-0.2l0.3-0.7c0-0.1,0.1-0.1,0.1-0.1C40,23.1,40,23.2,40.1,23.2L40.1,23.2z M47.8,41.5l0.3,0.7
	c0.1,0.1,0.1,0.2,0.2,0.2l0.8,0.1c0.1,0,0.1,0.1,0.1,0.1c0,0.1,0,0.1,0,0.2l-0.6,0.5c-0.1,0.1-0.1,0.2-0.1,0.3l0.1,0.8
	c0,0.1,0,0.1-0.1,0.2c-0.1,0-0.1,0-0.2,0l-0.7-0.4c-0.1-0.1-0.2-0.1-0.3,0l-0.7,0.4c-0.1,0-0.1,0-0.2,0c-0.1,0-0.1-0.1-0.1-0.2
	l0.1-0.8c0-0.1,0-0.2-0.1-0.3l-0.6-0.5c0,0-0.1-0.1,0-0.2c0-0.1,0.1-0.1,0.1-0.1l0.8-0.1c0.1,0,0.2-0.1,0.2-0.2l0.3-0.7
	c0-0.1,0.1-0.1,0.1-0.1C47.7,41.5,47.8,41.5,47.8,41.5L47.8,41.5z"/>
<path class="st4" d="M52.2,42.7c-0.5-3.5-1.9-6.7-3.8-9.4v0l0.3,1.9c0,0.2,0,0.3-0.2,0.4c-0.1,0.1-0.3,0.1-0.4,0l-1.7-0.9
	c-0.3-0.1-0.5-0.1-0.8,0l-1.7,0.9c-0.1,0.1-0.3,0.1-0.4,0c-0.1-0.1-0.2-0.2-0.2-0.4l0.3-1.9c0-0.3,0-0.5-0.2-0.7L42,31.2
	c-0.1-0.1-0.2-0.3-0.1-0.4c0.1-0.2,0.2-0.3,0.3-0.3l1.9-0.3c0.3,0,0.5-0.2,0.6-0.5l0.1-0.3c-1.6-1.4-3.5-2.6-5.5-3.4l-0.3,0.2
	c-0.1,0-0.1,0-0.2,0c-0.1,0-0.1-0.1-0.1-0.2l0-0.2c-1.8-0.7-3.7-1.2-5.7-1.4l-0.7,1.3c-0.8,1.5-2.1,2.5-3.8,2.7L17,30.3
	c-1,0.1-1.7,0.8-2,1.7c-0.3,0.9-0.1,1.9,0.6,2.6l8.5,8.3c1.2,1.2,1.7,2.7,1.4,4.4l-2,11.7c-0.2,1,0.2,1.9,1,2.4
	c0.8,0.6,1.8,0.6,2.6,0.2c3.9-2.1,10.6-4.4,11.8-6.9c-0.2,0.2-0.6,0.6-0.9,0.7c0.5-0.8,1.4-2.9,0.5-4.1c-0.1-0.1-0.1-0.2-0.2-0.2
	c0.2-0.1,0.4-0.1,0.6,0c-0.3-0.2-0.7-0.2-1,0c-0.2,0.1-0.2,0.3-0.3,0.3c-0.1,0-0.5-0.5-0.6-0.6l0.2,0.4c-0.3,0.4-0.7,0.9-0.9,1.4
	c-0.1-0.2-0.1-0.5-0.1-0.8c-0.2,0.7,0,1.3,0.3,1.9c0.2,0.3,0.4,0.4,0.3,0.5c-0.4,0.1-0.6-0.4-0.9-0.4c-0.3,0.1-0.4,0.9-0.6,0.8
	c-0.2-0.1,0.1-0.9,0.1-1c-0.1,0-0.7,0.8-0.9,0.7c-0.2-0.1,0.6-1,0.5-1c-0.1-0.1-0.9,0.6-1.1,0.4C34,53.7,34.9,53,34.9,53
	c0-0.1-0.8,0.1-0.8-0.1c0-0.1,0.8-0.1,1.2-0.6c0.7-0.7,0.8-1.7,1.4-2.9c0.6-1.1,1.2-1,1.5-1.7c-0.2,0.3-0.5,0.5-0.8,0.6
	c-0.3-0.9-1.8,1-3.9-0.5c0.5,0.5,1.1,0.8,1.8,0.9c-0.7,0.3-1.5,0.4-2.6-0.1c-0.6-0.3-0.9-0.9-1.2-1.4c-0.2,0.1-0.4,0.3-0.4,0.5
	c-0.2-0.3-0.1-0.6,0.2-0.8c-0.4,0-0.8-0.2-1-0.6c0.3,0.2,0.7,0.3,1.1,0.3c-0.2-0.8-0.4-1.6-0.1-2.2c0.2-0.5,0.5-0.9,0.9-1.2
	c-0.3,0.7-0.3,1.4-0.2,2.2c-0.4-2.6,2.7-4.3,4.1-3.3c-0.3-0.1-0.6,0-0.8,0.1c0.2,0,0.5,0.1,0.6,0.2c-0.2-0.1-0.5-0.1-0.7,0
	c0.8,0.3,0.7,1,1.4,1.1c0.6,0.1,0.9-0.2,0.9-0.1c0.1,0.1,0,0.3,0.1,0.6c0.2,0.1,0.5,0,0.6,0c0.2,0.1,0,0.4,0.4,0.6
	c0.3,0.1,0.3,0.3,0.2,0.5c-0.2,0.7-0.9,1-1.1,1.9c0.1-0.3,0.3-0.6,0.5-0.8c0,0.3,0.6,0.7,0.9,0.2c0.3-0.4,0.5-1.2,0.8-1.8
	c0.4-0.8,0.9-1.4,1.4-2.2c-0.2,0.3-0.5,0.6-0.8,0.9c0.3-0.7,0.9-1.7,1-2.7c0.1,0.2,0.1,0.4,0.2,0.7c0-0.6,0-1.3-0.6-1.4
	c-0.3,0-0.5,0-0.5-0.1c0-0.1,0.8-0.1,0.8-0.2c0-0.1-0.9-0.3-0.9-0.5c0.1-0.2,0.9,0.2,1,0.1c0.1-0.2-1-0.8-0.8-1.1
	c0.1-0.1,0.9,0.8,1.1,0.5c0.1-0.1-0.3-1-0.1-1.1c0.2-0.1,0.3,0.4,0.5,0.9c0.5,1.5,1.6,0.1,1.5,0.7c0,0.4-0.8,0.3-1,0.8
	c-0.3,0.8-0.3,0.9-0.4,1.7c-0.2,1.5-0.5,2.9-0.9,4.3c0,0.2-0.1,0.3-0.1,0.5l-0.6-0.2c0.3,0.2,1.3,0.9,1,1.2
	c-0.4,0.4-0.7,0.7-0.5,1.3c0-0.2,0.1-0.5,0.2-0.6c0.2,0.4,0.9,1.1,1.3,1.7c0.1,0.1,0.1,0.2,0.2,0.3c-0.2-0.1-0.5-0.3-0.8-0.3
	c2.1,1.4,1.8,4.5,0.1,6.1l0,0c0.5-0.2,1-0.7,1.3-1l0,0.1c-0.2,1.6,2.2,3.1,4.8,4.3C51.3,54.7,53.1,48.8,52.2,42.7L52.2,42.7z
	 M36.4,32.8l0.2,0.5c0,0.1,0.1,0.1,0.2,0.1l0.5,0.1c0,0,0.1,0,0.1,0.1c0,0,0,0.1,0,0.1L37,34.1c-0.1,0.1-0.1,0.1-0.1,0.2l0.1,0.5
	c0,0,0,0.1,0,0.1c0,0-0.1,0-0.1,0l-0.5-0.3c-0.1,0-0.1,0-0.2,0l-0.5,0.3c0,0-0.1,0-0.1,0c0,0-0.1-0.1,0-0.1l0.1-0.5
	c0-0.1,0-0.1-0.1-0.2l-0.4-0.4c0,0,0-0.1,0-0.1c0,0,0-0.1,0.1-0.1l0.5-0.1c0.1,0,0.1-0.1,0.2-0.1l0.2-0.5
	C36.2,32.8,36.2,32.8,36.4,32.8C36.3,32.8,36.4,32.8,36.4,32.8L36.4,32.8z M47.8,41.5l0.3,0.7c0.1,0.1,0.1,0.2,0.2,0.2l0.8,0.1
	c0.1,0,0.1,0.1,0.1,0.1c0,0.1,0,0.1,0,0.2l-0.6,0.5c-0.1,0.1-0.1,0.2-0.1,0.3l0.1,0.8c0,0.1,0,0.1-0.1,0.2c-0.1,0-0.1,0-0.2,0
	l-0.7-0.4c-0.1-0.1-0.2-0.1-0.3,0l-0.7,0.4c-0.1,0-0.1,0-0.2,0c-0.1,0-0.1-0.1-0.1-0.2l0.1-0.8c0-0.1,0-0.2-0.1-0.3l-0.6-0.5
	c0,0-0.1-0.1,0-0.2c0-0.1,0.1-0.1,0.1-0.1l0.8-0.1c0.1,0,0.2-0.1,0.2-0.2l0.3-0.7c0-0.1,0.1-0.1,0.1-0.1
	C47.7,41.5,47.8,41.5,47.8,41.5L47.8,41.5z"/>
<path class="st5" d="M52.2,42.7c-0.5-3.5-1.9-6.7-3.8-9.4v0l0.3,1.9c0,0.2,0,0.3-0.2,0.4c-0.1,0.1-0.3,0.1-0.4,0l-1.7-0.9
	c-0.3-0.1-0.5-0.1-0.8,0l-1.7,0.9c-0.1,0.1-0.3,0.1-0.4,0c-0.1-0.1-0.2-0.2-0.2-0.4l0.3-1.9c0-0.3,0-0.5-0.2-0.7L42,31.2
	c-0.1-0.1-0.2-0.3-0.1-0.4c0.1-0.2,0.2-0.3,0.3-0.3l1.9-0.3c0.3,0,0.5-0.2,0.6-0.5l0.1-0.3c-1.6-1.4-3.5-2.6-5.5-3.4l-0.3,0.2
	c-0.1,0-0.1,0-0.2,0c-0.1,0-0.1-0.1-0.1-0.2l0-0.2c-1.8-0.7-3.7-1.2-5.7-1.4l-0.7,1.3c-0.8,1.5-2.1,2.5-3.8,2.7l-6.4,0.9
	c-1.2,3.2-1.7,6.6-1.5,10.1l3.3,3.2c1.2,1.2,1.7,2.7,1.4,4.4l-0.8,4.7c1.9,2.9,4.3,5.4,7.2,7.4c3.1-1.5,6.2-3,7-4.7
	c-0.2,0.2-0.6,0.6-0.9,0.7c0.5-0.8,1.4-2.9,0.5-4.1c-0.1-0.1-0.1-0.2-0.2-0.2c0.2-0.1,0.4-0.1,0.6,0c-0.3-0.2-0.7-0.2-1,0
	c-0.2,0.1-0.2,0.3-0.3,0.3c-0.1,0-0.5-0.5-0.6-0.6l0.2,0.4c-0.3,0.4-0.7,0.9-0.9,1.4c-0.1-0.2-0.1-0.5-0.1-0.8
	c-0.2,0.7,0,1.3,0.3,1.9c0.2,0.3,0.4,0.4,0.3,0.5c-0.4,0.1-0.6-0.4-0.9-0.4c-0.3,0.1-0.4,0.9-0.6,0.8c-0.2-0.1,0.1-0.9,0.1-1
	c-0.1,0-0.7,0.8-0.9,0.7c-0.2-0.1,0.6-1,0.5-1c-0.1-0.1-0.9,0.6-1.1,0.4C34,53.7,34.9,53,34.9,53c0-0.1-0.8,0.1-0.8-0.1
	c0-0.1,0.8-0.1,1.2-0.6c0.7-0.7,0.8-1.7,1.4-2.9c0.6-1.1,1.2-1,1.5-1.7c-0.2,0.3-0.5,0.5-0.8,0.6c-0.3-0.9-1.8,1-3.9-0.5
	c0.5,0.5,1.1,0.8,1.8,0.9c-0.7,0.3-1.5,0.4-2.6-0.1c-0.6-0.3-0.9-0.9-1.2-1.4c-0.2,0.1-0.4,0.3-0.4,0.5c-0.2-0.3-0.1-0.6,0.2-0.8
	c-0.4,0-0.8-0.2-1-0.6c0.3,0.2,0.7,0.3,1.1,0.3c-0.2-0.8-0.4-1.6-0.1-2.2c0.2-0.5,0.5-0.9,0.9-1.2c-0.3,0.7-0.3,1.4-0.2,2.2
	c-0.4-2.6,2.7-4.3,4.1-3.3c-0.3-0.1-0.6,0-0.8,0.1c0.2,0,0.5,0.1,0.6,0.2c-0.2-0.1-0.5-0.1-0.7,0c0.8,0.3,0.7,1,1.4,1.1
	c0.6,0.1,0.9-0.2,0.9-0.1c0.1,0.1,0,0.3,0.1,0.6c0.2,0.1,0.5,0,0.6,0c0.2,0.1,0,0.4,0.4,0.6c0.3,0.1,0.3,0.3,0.2,0.5
	c-0.2,0.7-0.9,1-1.1,1.9c0.1-0.3,0.3-0.6,0.5-0.8c0,0.3,0.6,0.7,0.9,0.2c0.3-0.4,0.5-1.2,0.8-1.8c0.4-0.8,0.9-1.4,1.4-2.2
	c-0.2,0.3-0.5,0.6-0.8,0.9c0.3-0.7,0.9-1.7,1-2.7c0.1,0.2,0.1,0.4,0.2,0.7c0-0.6,0-1.3-0.6-1.4c-0.3,0-0.5,0-0.5-0.1
	c0-0.1,0.8-0.1,0.8-0.2c0-0.1-0.9-0.3-0.9-0.5c0.1-0.2,0.9,0.2,1,0.1c0.1-0.2-1-0.8-0.8-1.1c0.1-0.1,0.9,0.8,1.1,0.5
	c0.1-0.1-0.3-1-0.1-1.1c0.2-0.1,0.3,0.4,0.5,0.9c0.5,1.5,1.6,0.1,1.5,0.7c0,0.4-0.8,0.3-1,0.8c-0.3,0.8-0.3,0.9-0.4,1.7
	c-0.2,1.5-0.5,2.9-0.9,4.3c0,0.2-0.1,0.3-0.1,0.5l-0.6-0.2c0.3,0.2,1.3,0.9,1,1.2c-0.4,0.4-0.7,0.7-0.5,1.3c0-0.2,0.1-0.5,0.2-0.6
	c0.2,0.4,0.9,1.1,1.3,1.7c0.1,0.1,0.1,0.2,0.2,0.3c-0.2-0.1-0.5-0.3-0.8-0.3c2.1,1.4,1.8,4.5,0.1,6.1l0,0c0.5-0.2,1-0.7,1.3-1l0,0.1
	c-0.2,1.6,2.2,3.1,4.8,4.3C51.3,54.7,53.1,48.8,52.2,42.7L52.2,42.7z M36.4,32.8l0.2,0.5c0,0.1,0.1,0.1,0.2,0.1l0.5,0.1
	c0,0,0.1,0,0.1,0.1c0,0,0,0.1,0,0.1L37,34.1c-0.1,0.1-0.1,0.1-0.1,0.2l0.1,0.5c0,0,0,0.1,0,0.1c0,0-0.1,0-0.1,0l-0.5-0.3
	c-0.1,0-0.1,0-0.2,0l-0.5,0.3c0,0-0.1,0-0.1,0c0,0-0.1-0.1,0-0.1l0.1-0.5c0-0.1,0-0.1-0.1-0.2l-0.4-0.4c0,0,0-0.1,0-0.1
	c0,0,0-0.1,0.1-0.1l0.5-0.1c0.1,0,0.1-0.1,0.2-0.1l0.2-0.5C36.2,32.8,36.2,32.8,36.4,32.8C36.3,32.8,36.4,32.8,36.4,32.8L36.4,32.8z
	 M47.8,41.5l0.3,0.7c0.1,0.1,0.1,0.2,0.2,0.2l0.8,0.1c0.1,0,0.1,0.1,0.1,0.1c0,0.1,0,0.1,0,0.2l-0.6,0.5c-0.1,0.1-0.1,0.2-0.1,0.3
	l0.1,0.8c0,0.1,0,0.1-0.1,0.2c-0.1,0-0.1,0-0.2,0l-0.7-0.4c-0.1-0.1-0.2-0.1-0.3,0l-0.7,0.4c-0.1,0-0.1,0-0.2,0
	c-0.1,0-0.1-0.1-0.1-0.2l0.1-0.8c0-0.1,0-0.2-0.1-0.3l-0.6-0.5c0,0-0.1-0.1,0-0.2c0-0.1,0.1-0.1,0.1-0.1l0.8-0.1
	c0.1,0,0.2-0.1,0.2-0.2l0.3-0.7c0-0.1,0.1-0.1,0.1-0.1C47.7,41.5,47.8,41.5,47.8,41.5L47.8,41.5z"/>
<path class="st0" d="M46.2,26.6c-0.8-5.2-3.9-9.4-8.1-11.8c-0.1,0.1-0.2,0.3-0.3,0.5l-5.3,10.6c-0.8,1.5-2.1,2.5-3.8,2.7L17,30.3
	c-1,0.1-1.7,0.8-2,1.7c-0.3,0.9-0.1,1.9,0.6,2.6l8.5,8.3c0.6,0.6,1,1.3,1.3,2c1.8,0.5,3.6,0.7,5.5,0.6c0-0.4,0-0.7,0.1-1
	c0.2-0.5,0.5-0.9,0.9-1.2c-0.3,0.7-0.3,1.4-0.2,2.2c-0.4-2.6,2.7-4.3,4.1-3.3c-0.3-0.1-0.6,0-0.8,0.1c0.2,0,0.5,0.1,0.6,0.2
	c-0.2-0.1-0.5-0.1-0.7,0c0.8,0.3,0.7,1,1.4,1.1c0.6,0.1,0.9-0.2,0.9-0.1c0,0,0,0.2,0,0.4c1.4-0.7,2.6-1.6,3.8-2.6
	c0.1-0.2,0.1-0.4,0.1-0.6c0,0.1,0.1,0.2,0.1,0.4l0.1-0.1c0-0.5-0.1-1-0.6-1c-0.3,0-0.5,0-0.5-0.1c0-0.1,0.8-0.1,0.8-0.2
	c0-0.1-0.9-0.3-0.9-0.5c0.1-0.2,0.9,0.2,1,0.1c0.1-0.2-1-0.8-0.8-1.1c0.1-0.1,0.9,0.8,1.1,0.5c0.1-0.1-0.3-1-0.1-1.1
	c0.2-0.1,0.3,0.4,0.5,0.9c0.3,0.9,0.8,0.7,1.2,0.6c0.9-1.2,1.7-2.5,2.2-4l-1.4,0.7c-0.1,0.1-0.3,0.1-0.4,0c-0.1-0.1-0.2-0.2-0.2-0.4
	l0.3-1.9c0-0.3,0-0.5-0.2-0.7L42,31.2c-0.1-0.1-0.2-0.3-0.1-0.4c0.1-0.2,0.2-0.3,0.3-0.3l1.9-0.3c0.3,0,0.5-0.2,0.6-0.5l0.9-1.7
	c0.1-0.1,0.2-0.2,0.4-0.2c0.1,0,0.2,0.1,0.3,0.2C46.3,27.5,46.2,27,46.2,26.6L46.2,26.6z M42.4,39.7L42.4,39.7
	C42.4,39.6,42.4,39.6,42.4,39.7L42.4,39.7z M36.4,32.8l0.2,0.5c0,0.1,0.1,0.1,0.2,0.1l0.5,0.1c0,0,0.1,0,0.1,0.1c0,0,0,0.1,0,0.1
	L37,34.1c-0.1,0.1-0.1,0.1-0.1,0.2l0.1,0.5c0,0,0,0.1,0,0.1c0,0-0.1,0-0.1,0l-0.5-0.3c-0.1,0-0.1,0-0.2,0l-0.5,0.3c0,0-0.1,0-0.1,0
	c0,0-0.1-0.1,0-0.1l0.1-0.5c0-0.1,0-0.1-0.1-0.2l-0.4-0.4c0,0,0-0.1,0-0.1c0,0,0-0.1,0.1-0.1l0.5-0.1c0.1,0,0.1-0.1,0.2-0.1l0.2-0.5
	C36.2,32.8,36.2,32.8,36.4,32.8C36.3,32.8,36.4,32.8,36.4,32.8L36.4,32.8z M40.1,23.2l0.3,0.7c0.1,0.1,0.1,0.2,0.2,0.2l0.8,0.1
	c0.1,0,0.1,0.1,0.1,0.1c0,0.1,0,0.1,0,0.2L41,25c-0.1,0.1-0.1,0.2-0.1,0.3l0.1,0.8c0,0.1,0,0.1-0.1,0.2c-0.1,0-0.1,0-0.2,0l-0.7-0.4
	c-0.1-0.1-0.2-0.1-0.3,0l-0.7,0.4c-0.1,0-0.1,0-0.2,0c-0.1,0-0.1-0.1-0.1-0.2l0.1-0.8c0-0.1,0-0.2-0.1-0.3l-0.6-0.5
	c0,0-0.1-0.1,0-0.2c0-0.1,0.1-0.1,0.1-0.1l0.8-0.1c0.1,0,0.2-0.1,0.2-0.2l0.3-0.7c0-0.1,0.1-0.1,0.1-0.1C40,23.1,40,23.2,40.1,23.2
	L40.1,23.2z"/>
<path class="st6" d="M25.4,44.8c1.8,0.5,3.6,0.7,5.5,0.6c0-0.4,0-0.7,0.1-1c0.2-0.5,0.5-0.9,0.9-1.2c-0.3,0.7-0.3,1.4-0.2,2.2
	c-0.4-2.6,2.7-4.3,4.1-3.3c-0.3-0.1-0.6,0-0.8,0.1c0.2,0,0.5,0.1,0.6,0.2c-0.2-0.1-0.5-0.1-0.7,0c0.8,0.3,0.7,1,1.4,1.1
	c0.6,0.1,0.9-0.2,0.9-0.1c0,0,0,0.2,0,0.4c1.4-0.7,2.6-1.6,3.8-2.6c0.1-0.2,0.1-0.4,0.1-0.6c0,0.1,0.1,0.2,0.1,0.4l0.1-0.1
	c0-0.5-0.1-1-0.6-1c-0.3,0-0.5,0-0.5-0.1c0-0.1,0.8-0.1,0.8-0.2c0-0.1-0.9-0.3-0.9-0.5c0.1-0.2,0.9,0.2,1,0.1c0.1-0.2-1-0.8-0.8-1.1
	c0.1-0.1,0.9,0.8,1.1,0.5c0.1-0.1-0.3-1-0.1-1.1c0.2-0.1,0.3,0.4,0.5,0.9c0.3,0.9,0.8,0.7,1.2,0.6c0.9-1.2,1.7-2.5,2.2-4l-1.4,0.7
	c-0.1,0.1-0.3,0.1-0.4,0c-0.1-0.1-0.2-0.2-0.2-0.4l0.3-1.9c0-0.3,0-0.5-0.2-0.7L42,31.2c-0.1-0.1-0.2-0.3-0.1-0.4
	c0.1-0.2,0.2-0.3,0.3-0.3l1.9-0.3c0.3,0,0.5-0.2,0.6-0.5l0.1-0.3c-1.6-1.4-3.5-2.6-5.5-3.4l-0.3,0.2c-0.1,0-0.1,0-0.2,0
	c-0.1,0-0.1-0.1-0.1-0.2l0-0.2c-1.8-0.7-3.7-1.2-5.7-1.4l-0.7,1.3c-0.8,1.5-2.1,2.5-3.8,2.7L17,30.3c-1,0.1-1.7,0.8-2,1.7
	c-0.3,0.9-0.1,1.9,0.6,2.6l8.5,8.3C24.7,43.4,25.2,44.1,25.4,44.8L25.4,44.8z M42.4,39.6L42.4,39.6C42.4,39.6,42.4,39.6,42.4,39.6
	L42.4,39.6z M36.4,32.8l0.2,0.5c0,0.1,0.1,0.1,0.2,0.1l0.5,0.1c0,0,0.1,0,0.1,0.1c0,0,0,0.1,0,0.1L37,34.1c-0.1,0.1-0.1,0.1-0.1,0.2
	l0.1,0.5c0,0,0,0.1,0,0.1c0,0-0.1,0-0.1,0l-0.5-0.3c-0.1,0-0.1,0-0.2,0l-0.5,0.3c0,0-0.1,0-0.1,0c0,0-0.1-0.1,0-0.1l0.1-0.5
	c0-0.1,0-0.1-0.1-0.2l-0.4-0.4c0,0,0-0.1,0-0.1c0,0,0-0.1,0.1-0.1l0.5-0.1c0.1,0,0.1-0.1,0.2-0.1l0.2-0.5
	C36.2,32.8,36.2,32.8,36.4,32.8C36.3,32.8,36.4,32.8,36.4,32.8L36.4,32.8z"/>
<path class="st2" d="M46.2,26.6c-0.8-5.2-3.9-9.4-8.1-11.8c-0.1,0.1-0.2,0.3-0.3,0.5l-5.3,10.6c-0.8,1.5-2.1,2.5-3.8,2.7l-6.4,0.9
	c-1.2,3.2-1.7,6.6-1.5,10.1l3.3,3.2c0.6,0.6,1,1.3,1.3,2c1.8,0.5,3.6,0.7,5.5,0.6c0-0.4,0-0.7,0.1-1c0.2-0.5,0.5-0.9,0.9-1.2
	c-0.3,0.7-0.3,1.4-0.2,2.2c-0.4-2.6,2.7-4.3,4.1-3.3c-0.3-0.1-0.6,0-0.8,0.1c0.2,0,0.5,0.1,0.6,0.2c-0.2-0.1-0.5-0.1-0.7,0
	c0.8,0.3,0.7,1,1.4,1.1c0.6,0.1,0.9-0.2,0.9-0.1c0,0,0,0.2,0,0.4c1.4-0.7,2.6-1.6,3.8-2.6c0.1-0.2,0.1-0.4,0.1-0.6
	c0,0.1,0.1,0.2,0.1,0.4l0.1-0.1c0-0.5-0.1-1-0.6-1c-0.3,0-0.5,0-0.5-0.1c0-0.1,0.8-0.1,0.8-0.2c0-0.1-0.9-0.3-0.9-0.5
	c0.1-0.2,0.9,0.2,1,0.1c0.1-0.2-1-0.8-0.8-1.1c0.1-0.1,0.9,0.8,1.1,0.5c0.1-0.1-0.3-1-0.1-1.1c0.2-0.1,0.3,0.4,0.5,0.9
	c0.3,0.9,0.8,0.7,1.2,0.6c0.9-1.2,1.7-2.5,2.2-4l-1.4,0.7c-0.1,0.1-0.3,0.1-0.4,0c-0.1-0.1-0.2-0.2-0.2-0.4l0.3-1.9
	c0-0.3,0-0.5-0.2-0.7L42,31.2c-0.1-0.1-0.2-0.3-0.1-0.4c0.1-0.2,0.2-0.3,0.3-0.3l1.9-0.3c0.3,0,0.5-0.2,0.6-0.5l0.9-1.7
	c0.1-0.1,0.2-0.2,0.4-0.2c0.1,0,0.2,0.1,0.3,0.2C46.3,27.5,46.2,27,46.2,26.6L46.2,26.6z M42.4,39.7L42.4,39.7
	C42.4,39.6,42.4,39.6,42.4,39.7L42.4,39.7z M36.4,32.8l0.2,0.5c0,0.1,0.1,0.1,0.2,0.1l0.5,0.1c0,0,0.1,0,0.1,0.1c0,0,0,0.1,0,0.1
	L37,34.1c-0.1,0.1-0.1,0.1-0.1,0.2l0.1,0.5c0,0,0,0.1,0,0.1c0,0-0.1,0-0.1,0l-0.5-0.3c-0.1,0-0.1,0-0.2,0l-0.5,0.3c0,0-0.1,0-0.1,0
	c0,0-0.1-0.1,0-0.1l0.1-0.5c0-0.1,0-0.1-0.1-0.2l-0.4-0.4c0,0,0-0.1,0-0.1c0,0,0-0.1,0.1-0.1l0.5-0.1c0.1,0,0.1-0.1,0.2-0.1l0.2-0.5
	C36.2,32.8,36.2,32.8,36.4,32.8C36.3,32.8,36.4,32.8,36.4,32.8L36.4,32.8z M40.1,23.2l0.3,0.7c0.1,0.1,0.1,0.2,0.2,0.2l0.8,0.1
	c0.1,0,0.1,0.1,0.1,0.1c0,0.1,0,0.1,0,0.2L41,25c-0.1,0.1-0.1,0.2-0.1,0.3l0.1,0.8c0,0.1,0,0.1-0.1,0.2c-0.1,0-0.1,0-0.2,0l-0.7-0.4
	c-0.1-0.1-0.2-0.1-0.3,0l-0.7,0.4c-0.1,0-0.1,0-0.2,0c-0.1,0-0.1-0.1-0.1-0.2l0.1-0.8c0-0.1,0-0.2-0.1-0.3l-0.6-0.5
	c0,0-0.1-0.1,0-0.2c0-0.1,0.1-0.1,0.1-0.1l0.8-0.1c0.1,0,0.2-0.1,0.2-0.2l0.3-0.7c0-0.1,0.1-0.1,0.1-0.1C40,23.1,40,23.2,40.1,23.2
	L40.1,23.2z"/>
<path class="st7" d="M22.4,29.5l-0.1,0.2l0,0L22.2,30l-0.1,0.2l-0.1,0.2L22,30.6l-0.1,0.2l-0.1,0.3l-0.1,0.3l0,0.2L21.6,32l0,0.1
	l-0.1,0.4l0,0.2l-0.1,0.4l0,0.1l-0.1,0.4l0,0.2l-0.1,0.4l0,0.2L21,34.7l0,0.2L21,35.2l0,0.1l0,0.4l0,0.2l0,0.4l0,0.1
	c0,0.1,0,0.3,0,0.4l0,0.1c0,0.2,0,0.3,0,0.5v0.1l0,0.5v0.1c0,0.2,0,0.3,0,0.5v0c0,0.2,0,0.3,0,0.5v0.1l0,0.1c0,0.1,0,0.2,0,0.3
	l3.3,3.2c0.6,0.6,1,1.3,1.3,2c1.8,0.5,3.6,0.7,5.5,0.6c0-0.4,0-0.7,0.1-1c0.2-0.5,0.5-0.9,0.9-1.2c-0.3,0.7-0.3,1.4-0.2,2.2
	c-0.4-2.6,2.7-4.3,4.1-3.3c-0.3-0.1-0.6,0-0.8,0.1c0.2,0,0.5,0.1,0.6,0.2c-0.2-0.1-0.5-0.1-0.7,0c0.8,0.3,0.7,1,1.4,1.1
	c0.6,0.1,0.9-0.2,0.9-0.1c0,0,0,0.2,0,0.4c1.4-0.7,2.6-1.6,3.8-2.6c0.1-0.2,0.1-0.4,0.1-0.6c0,0.1,0.1,0.2,0.1,0.4l0.1-0.1
	c0-0.5-0.1-1-0.6-1c-0.3,0-0.5,0-0.5-0.1c0-0.1,0.8-0.1,0.8-0.2c0-0.1-0.9-0.3-0.9-0.5c0.1-0.2,0.9,0.2,1,0.1c0.1-0.2-1-0.8-0.8-1.1
	c0.1-0.1,0.9,0.8,1.1,0.5c0.1-0.1-0.3-1-0.1-1.1c0.2-0.1,0.3,0.4,0.5,0.9c0.3,0.9,0.8,0.7,1.2,0.6c0.9-1.2,1.7-2.5,2.2-4l-1.4,0.7
	c-0.1,0.1-0.3,0.1-0.4,0c-0.1-0.1-0.2-0.2-0.2-0.4l0.3-1.9c0-0.3,0-0.5-0.2-0.7L42,31.2c-0.1-0.1-0.2-0.3-0.1-0.4
	c0.1-0.2,0.2-0.3,0.3-0.3l1.9-0.3c0.3,0,0.5-0.2,0.6-0.5l0.1-0.3c-1.6-1.4-3.5-2.6-5.5-3.4l-0.3,0.2c-0.1,0-0.1,0-0.2,0
	c-0.1,0-0.1-0.1-0.1-0.2l0-0.2c-1.8-0.7-3.7-1.2-5.7-1.4l-0.7,1.3c-0.8,1.5-2.1,2.5-3.8,2.7L22.4,29.5z M42.4,39.6L42.4,39.6
	C42.4,39.6,42.4,39.6,42.4,39.6L42.4,39.6z M36.4,32.8l0.2,0.5c0,0.1,0.1,0.1,0.2,0.1l0.5,0.1c0,0,0.1,0,0.1,0.1c0,0,0,0.1,0,0.1
	L37,34.1c-0.1,0.1-0.1,0.1-0.1,0.2l0.1,0.5c0,0,0,0.1,0,0.1c0,0-0.1,0-0.1,0l-0.5-0.3c-0.1,0-0.1,0-0.2,0l-0.5,0.3c0,0-0.1,0-0.1,0
	c0,0-0.1-0.1,0-0.1l0.1-0.5c0-0.1,0-0.1-0.1-0.2l-0.4-0.4c0,0,0-0.1,0-0.1c0,0,0-0.1,0.1-0.1l0.5-0.1c0.1,0,0.1-0.1,0.2-0.1l0.2-0.5
	C36.2,32.8,36.2,32.8,36.4,32.8C36.3,32.8,36.4,32.8,36.4,32.8L36.4,32.8z"/>
<path class="st4" d="M48.6,63c-0.1-0.7-0.8-1.2-1.5-1.1c-0.7,0.1-1.2,0.8-1.1,1.5c0.1,0.7,0.8,1.2,1.5,1.1
	C48.2,64.4,48.7,63.7,48.6,63L48.6,63z"/>
<path class="st7" d="M54.8,23.5c-0.1-0.7-0.8-1.2-1.5-1.1c-0.7,0.1-1.2,0.8-1.1,1.5c0.1,0.7,0.8,1.2,1.5,1.1
	C54.4,24.9,54.9,24.2,54.8,23.5L54.8,23.5z"/>
</svg>
