<?xml version="1.0" encoding="utf-8"?>
<!-- Generator: Adobe Illustrator 24.2.3, SVG Export Plug-In . SVG Version: 6.00 Build 0)  -->
<svg version="1.1" id="Layer_1" xmlns="http://www.w3.org/2000/svg" xmlns:xlink="http://www.w3.org/1999/xlink" x="0px" y="0px"
	 viewBox="0 0 450 450" style="enable-background:new 0 0 450 450;" xml:space="preserve">
<style type="text/css">
	.st0{fill-rule:evenodd;clip-rule:evenodd;fill:#FDC700;}
	.st1{fill-rule:evenodd;clip-rule:evenodd;fill:#6DC40F;}
	.st2{fill-rule:evenodd;clip-rule:evenodd;fill:#F63D24;}
	.st3{fill-rule:evenodd;clip-rule:evenodd;fill:#DF1B7D;}
	.st4{fill-rule:evenodd;clip-rule:evenodd;fill:#009BDA;}
	.st5{fill-rule:evenodd;clip-rule:evenodd;fill:#6E44B2;}
	.st6{fill-rule:evenodd;clip-rule:evenodd;fill:#566702;}
	.st7{fill-rule:evenodd;clip-rule:evenodd;fill:#570F6D;}
</style>
<desc>Created with Sketch.</desc>
<path class="st0" d="M242.2,357.7c-1.6-11.1-12-18.7-23-17c-11.1,1.6-18.7,12-17,23c1.6,11.1,11.9,18.7,23,17
	C236.3,379.1,243.9,368.8,242.2,357.7L242.2,357.7z"/>
<path class="st1" d="M164,108.5c-1.4-9.2-9.9-15.5-19.1-14.1c-9.2,1.4-15.5,10-14.1,19.1c1.4,9.2,9.9,15.5,19.1,14.1
	C159,126.3,165.3,117.7,164,108.5L164,108.5z"/>
<path class="st2" d="M104.5,273.5c-1-6.3-6.9-10.7-13.3-9.8c-6.4,1-10.7,6.9-9.8,13.3c1,6.4,6.9,10.7,13.3,9.8
	C101,285.8,105.4,279.9,104.5,273.5L104.5,273.5z"/>
<path class="st3" d="M119.8,162c-7,18.8-10.3,39.2-9.2,60.2l19.6,19.2c7.3,7.1,10.3,16.2,8.6,26.3l-4.7,27.8
	c11.2,17.5,25.9,32.5,42.9,44c18.8-8.7,37.2-18.1,41.7-27.8c-1.3,1.3-3.3,3.6-5.2,4.3c2.9-4.8,8.2-17.3,3.1-24.5
	c-0.4-0.6-0.9-1-1.3-1.3c1.1-0.4,2.4-0.3,3.6,0.1c-1.9-1.4-4.4-1.3-6.2-0.1c-1.2,0.8-1.3,1.7-1.7,1.8c-0.5,0-2.8-2.9-3.3-3.6l1,2.5
	c-2,2.5-4.4,5.2-5.2,8.3c-0.5-1.4-0.5-3-0.3-4.5c-1.2,4.3-0.1,7.6,1.8,11.2c1,1.8,2.1,2.7,1.8,2.8c-2.3,0.8-3.3-2.6-5.3-2.2
	c-1.8,0.4-2.3,5.4-3.5,5c-1.1-0.3,0.8-5.6,0.5-5.7c-0.8-0.3-4.3,4.9-5.3,4.4c-1-0.4,3.4-5.7,3-5.9c-0.6-0.4-5.3,3.3-6.3,2.6
	c-0.6-0.5,4.5-4.4,4.4-4.7c-0.2-0.5-5,0.7-4.9-0.5c0.1-0.8,4.6-0.8,6.9-3.3c3.9-4.2,4.5-10.3,8.4-17.2c3.7-6.4,7.4-5.7,8.7-10.3
	c-0.9,1.6-2.9,3-4.5,3.6c-1.7-5.2-11,6.2-23.4-2.8c2.8,3,6.6,4.8,10.6,5.1c-4.1,1.7-9.2,2.6-15.5-0.6c-3.6-1.8-5.4-5.3-7-8.4
	c-1.2,0.6-2.3,1.8-2.6,3.1c-1-1.6-0.6-3.7,1-4.7c-2.5-0.1-4.8-1.4-6-3.6c1.9,1.2,4.1,1.8,6.4,1.5c-1.4-4.5-2.3-9.5-0.8-13.4
	c1-2.7,2.8-5.2,5.1-7.4c-1.6,4.1-2,8.6-1.1,13c-2.4-15.5,16.1-25.7,24.6-19.7c-1.8-0.4-3.6-0.1-4.8,0.4c1.2,0.1,2.7,0.7,3.5,1.3
	c-1.2-0.5-3-0.6-4.1-0.3c4.6,2,4.1,5.8,8.3,6.3c3.7,0.4,5.1-1,5.6-0.5c0.3,0.3,0,1.9,0.4,3.4c1,0.4,2.8-0.1,3.4,0.2
	c1,0.5-0.1,2.6,2.2,3.7c1.6,0.8,1.7,2,1.3,3.2c-1.4,3.9-5.6,5.7-6.3,11.2c0.7-2.1,1.7-3.7,3-4.8c-0.3,2,3.6,3.9,5.4,1
	c1.6-2.6,3.1-7.1,4.6-10.6c2.1-4.9,5.6-8.4,8.1-13.3c-1.5,1.9-3,3.7-4.7,5.4c1.9-4.4,5.4-9.9,5.9-15.8c0.4,1,0.7,2.4,1,4.2
	c0.2-3.8-0.1-7.8-3.7-8.2c-1.5-0.2-3.1-0.2-3.1-0.7c0-0.7,4.7-0.5,4.8-1.2c0.1-0.8-5.4-1.8-5.1-2.9c0.4-1.2,5.4,1.4,5.8,0.5
	c0.5-1.2-5.8-5-4.5-6.3c0.7-0.8,5.2,4.5,6.3,3.3c0.7-0.7-1.9-5.7-0.5-6.4c0.9-0.4,1.9,2.6,2.8,5.2c3,8.8,9.3,0.5,8.9,3.9
	c-0.3,2.4-4.5,1.6-5.8,4.7c-2,4.6-1.8,5.2-2.6,10.1c-1.4,9-3.3,17.4-5.5,25.5c-0.3,1-0.6,2-0.9,3.1l-3.6-1.3
	c1.7,1.5,7.8,5.2,5.9,7.2c-2.2,2.4-3.9,4.2-3.1,7.9c0-1.4,0.4-2.7,1.2-3.8c1,2.2,5.6,6.5,7.6,10.1c0.4,0.7,0.7,1.3,1,2
	c-1.4-0.9-3-1.5-4.7-2c12.4,8.3,11,27.1,0.5,36.3l0,0c2.7-1.5,6.2-4.1,7.7-5.9l-0.1,0.8c-1.8,17,43.7,31.6,58.8,39.5
	c5.2,2.7,11,2.3,15.7-1.2c4.7-3.4,6.9-8.8,5.9-14.6l-11.8-69.5c-1.7-10.1,1.2-19.2,8.6-26.4l50.4-49.3c4.1-4.1,5.6-9.8,3.7-15.3
	c-1.8-5.5-6.3-9.3-12-10.1l-69.8-10.3c-10.1-1.5-17.9-7.1-22.4-16.3l-31.3-63.2c-2.6-5.2-7.6-8.3-13.4-8.3c-5.8,0-10.8,3.1-13.4,8.3
	l-31.3,63.2c-4.5,9.2-12.3,14.8-22.4,16.3L119.8,162z M262.9,153.3l5.2,10.5c0.8,1.5,2,2.4,3.7,2.7l11.5,1.7c0.9,0.1,1.7,0.8,2,1.7
	c0.3,0.9,0.1,1.8-0.6,2.5l-8.3,8.2c-1.2,1.2-1.7,2.7-1.4,4.3l2,11.5c0.2,0.9-0.2,1.8-1,2.4c-0.8,0.6-1.7,0.6-2.6,0.2l-10.3-5.4
	c-1.5-0.8-3.1-0.8-4.6,0l-10.3,5.4c-0.8,0.5-1.8,0.4-2.6-0.2c-0.8-0.6-1.1-1.5-1-2.4l1.9-11.5c0.3-1.7-0.2-3.2-1.4-4.3l-8.3-8.2
	c-0.7-0.7-0.9-1.6-0.6-2.5c0.3-0.9,1-1.5,2-1.7l11.5-1.7c1.7-0.3,3-1.2,3.7-2.7l5.2-10.4c0.4-0.9,1.2-1.4,2.2-1.4
	C261.7,152,262.5,152.5,262.9,153.3L262.9,153.3z M203.5,182.1l1.4,2.9c0.2,0.4,0.6,0.7,1,0.7l3.2,0.5c0.3,0,0.5,0.2,0.5,0.5
	c0.1,0.3,0,0.5-0.2,0.7l-2.3,2.2c-0.3,0.3-0.5,0.7-0.4,1.2l0.5,3.1c0,0.3-0.1,0.5-0.3,0.7c-0.2,0.2-0.5,0.2-0.7,0.1l-2.8-1.5
	c-0.4-0.2-0.8-0.2-1.2,0l-2.8,1.5c-0.2,0.1-0.5,0.1-0.7-0.1c-0.2-0.1-0.3-0.4-0.3-0.7l0.5-3.1c0.1-0.5-0.1-0.9-0.4-1.2l-2.3-2.2
	c-0.2-0.2-0.3-0.4-0.2-0.7c0.1-0.3,0.3-0.4,0.5-0.5l3.2-0.5c0.5-0.1,0.8-0.3,1-0.7l1.4-2.9c0.1-0.2,0.3-0.4,0.6-0.4
	S203.4,181.9,203.5,182.1L203.5,182.1z M225.4,124.7l2.1,4.2c0.3,0.6,0.8,1,1.5,1l4.6,0.7c0.4,0.1,0.7,0.3,0.8,0.7
	c0.1,0.4,0,0.7-0.3,1l-3.3,3.3c-0.5,0.5-0.7,1-0.6,1.7l0.8,4.6c0.1,0.4-0.1,0.7-0.4,1c-0.3,0.2-0.7,0.3-1,0.1l-4.1-2.2
	c-0.6-0.3-1.2-0.3-1.8,0l-4.1,2.2c-0.3,0.2-0.7,0.1-1-0.1c-0.3-0.2-0.5-0.6-0.4-1l0.8-4.6c0.1-0.7-0.1-1.3-0.5-1.7l-3.3-3.3
	c-0.3-0.3-0.4-0.6-0.3-1c0.1-0.4,0.4-0.6,0.8-0.7l4.6-0.7c0.7-0.1,1.2-0.5,1.5-1l2-4.2c0.2-0.3,0.5-0.5,0.9-0.5
	C224.9,124.1,225.2,124.3,225.4,124.7L225.4,124.7z M271.6,234l2,4.1c0.3,0.6,0.8,1,1.5,1.1l4.6,0.7c0.4,0.1,0.7,0.3,0.8,0.7
	c0.1,0.3,0,0.7-0.3,1l-3.3,3.2c-0.5,0.5-0.7,1.1-0.5,1.8l0.8,4.6c0.1,0.4-0.1,0.7-0.4,1c-0.3,0.2-0.7,0.3-1,0.1l-4.1-2.2
	c-0.6-0.3-1.2-0.3-1.8,0l-4.1,2.2c-0.3,0.2-0.7,0.1-1-0.1c-0.3-0.2-0.5-0.6-0.4-1l0.8-4.6c0.1-0.7-0.1-1.3-0.6-1.8l-3.3-3.2
	c-0.3-0.3-0.4-0.7-0.3-1c0.1-0.4,0.4-0.6,0.8-0.7l4.6-0.7c0.7-0.1,1.2-0.5,1.5-1.1l2.1-4.1c0.2-0.3,0.5-0.5,0.9-0.5
	C271.1,233.5,271.5,233.6,271.6,234L271.6,234z"/>
<path class="st4" d="M297.6,240.6c-3.1-20.9-11.1-39.8-22.7-55.8v0.1l2,11.5c0.2,0.9-0.2,1.8-1,2.4c-0.8,0.6-1.7,0.6-2.6,0.2
	l-10.3-5.4c-1.5-0.8-3.1-0.8-4.6,0l-10.3,5.4c-0.8,0.5-1.8,0.4-2.6-0.2c-0.8-0.6-1.1-1.5-1-2.4l1.9-11.5c0.3-1.7-0.2-3.2-1.4-4.3
	l-8.3-8.2c-0.7-0.7-0.9-1.6-0.6-2.5c0.3-0.9,1-1.5,2-1.7l11.5-1.7c1.7-0.3,3-1.2,3.7-2.7l0.8-1.6c-9.8-8.4-20.9-15.2-32.8-20.3
	l-1.8,1c-0.3,0.2-0.7,0.1-1-0.1c-0.3-0.2-0.5-0.6-0.4-1l0.2-1.2c-10.8-4.3-22.2-7.1-34-8.4l-3.9,7.9c-4.5,9.2-12.3,14.8-22.4,16.3
	l-69.8,10.3c-5.8,0.8-10.2,4.6-12,10.1c-1.8,5.5-0.4,11.2,3.7,15.3l50.4,49.3c7.3,7.1,10.3,16.2,8.6,26.3L127,337.3
	c-1,5.8,1.2,11.2,5.9,14.6c4.7,3.4,10.5,3.9,15.7,1.2c23.5-12.3,63.1-26.4,70.1-41.2c-1.3,1.3-3.3,3.6-5.2,4.3
	c2.9-4.8,8.2-17.3,3.1-24.5c-0.4-0.6-0.9-1-1.3-1.3c1.1-0.4,2.4-0.3,3.6,0.1c-1.9-1.4-4.4-1.3-6.2-0.1c-1.2,0.8-1.3,1.7-1.7,1.8
	c-0.5,0-2.8-2.9-3.3-3.6l1,2.5c-2,2.5-4.4,5.2-5.2,8.3c-0.5-1.4-0.5-3-0.3-4.5c-1.2,4.3-0.1,7.6,1.8,11.2c1,1.8,2.1,2.7,1.8,2.8
	c-2.3,0.8-3.3-2.6-5.3-2.2c-1.8,0.4-2.3,5.4-3.5,5c-1.1-0.3,0.8-5.6,0.5-5.7c-0.8-0.3-4.3,4.9-5.3,4.4c-1-0.4,3.4-5.7,3-5.9
	c-0.6-0.4-5.3,3.3-6.3,2.6c-0.6-0.5,4.5-4.4,4.4-4.7c-0.2-0.5-5,0.7-4.9-0.5c0.1-0.8,4.6-0.8,6.9-3.3c3.9-4.2,4.5-10.3,8.4-17.2
	c3.7-6.4,7.4-5.7,8.7-10.3c-0.9,1.6-2.9,3-4.5,3.6c-1.7-5.2-11,6.2-23.4-2.8c2.8,3,6.6,4.8,10.6,5.1c-4.1,1.7-9.2,2.6-15.5-0.6
	c-3.6-1.8-5.4-5.3-7-8.4c-1.2,0.6-2.3,1.8-2.6,3.1c-1-1.6-0.6-3.7,1-4.7c-2.5-0.1-4.8-1.4-6-3.6c1.9,1.2,4.1,1.8,6.4,1.5
	c-1.4-4.5-2.3-9.5-0.8-13.4c1-2.7,2.8-5.2,5.1-7.4c-1.6,4.1-2,8.6-1.1,13c-2.4-15.5,16.1-25.7,24.6-19.7c-1.8-0.4-3.6-0.1-4.8,0.4
	c1.2,0.1,2.7,0.7,3.5,1.3c-1.2-0.5-3-0.6-4.1-0.3c4.6,2,4.1,5.8,8.3,6.3c3.7,0.4,5.1-1,5.6-0.5c0.3,0.3,0,1.9,0.4,3.4
	c1,0.4,2.8-0.1,3.4,0.2c1,0.5-0.1,2.6,2.2,3.7c1.6,0.8,1.7,2,1.3,3.2c-1.4,3.9-5.6,5.7-6.3,11.2c0.7-2.1,1.7-3.7,3-4.8
	c-0.3,2,3.6,3.9,5.4,1c1.6-2.6,3.1-7.1,4.6-10.6c2.1-4.9,5.6-8.4,8.1-13.3c-1.5,1.9-3,3.7-4.7,5.4c1.9-4.4,5.4-9.9,5.9-15.8
	c0.4,1,0.7,2.4,1,4.2c0.2-3.8-0.1-7.8-3.7-8.2c-1.5-0.2-3.1-0.2-3.1-0.7c0-0.7,4.7-0.5,4.8-1.2c0.1-0.8-5.4-1.8-5.1-2.9
	c0.4-1.2,5.4,1.4,5.8,0.5c0.5-1.2-5.8-5-4.5-6.3c0.7-0.8,5.2,4.5,6.3,3.3c0.7-0.7-1.9-5.7-0.5-6.4c0.9-0.4,1.9,2.6,2.8,5.2
	c3,8.8,9.3,0.5,8.9,3.9c-0.3,2.4-4.5,1.6-5.8,4.7c-2,4.6-1.8,5.2-2.6,10.1c-1.4,9-3.3,17.4-5.5,25.5c-0.3,1-0.6,2-0.9,3.1l-3.6-1.3
	c1.7,1.5,7.8,5.2,5.9,7.2c-2.2,2.4-3.9,4.2-3.1,7.9c0-1.4,0.4-2.7,1.2-3.8c1,2.2,5.6,6.5,7.6,10.1c0.4,0.7,0.7,1.3,1,2
	c-1.4-0.9-3-1.5-4.7-2c12.4,8.3,11,27.1,0.5,36.3l0,0c2.7-1.5,6.2-4.1,7.7-5.9l-0.1,0.8c-1,9.6,13.2,18.5,28.5,25.9
	C292.4,312.5,303.1,277.2,297.6,240.6L297.6,240.6z M203.5,182.1l1.4,2.9c0.2,0.4,0.6,0.7,1,0.7l3.2,0.5c0.3,0,0.5,0.2,0.5,0.5
	c0.1,0.3,0,0.5-0.2,0.7l-2.3,2.2c-0.3,0.3-0.5,0.7-0.4,1.2l0.5,3.1c0,0.3-0.1,0.5-0.3,0.7c-0.2,0.2-0.5,0.2-0.7,0.1l-2.8-1.5
	c-0.4-0.2-0.8-0.2-1.2,0l-2.8,1.5c-0.2,0.1-0.5,0.1-0.7-0.1c-0.2-0.1-0.3-0.4-0.3-0.7l0.5-3.1c0.1-0.5-0.1-0.9-0.4-1.2l-2.3-2.2
	c-0.2-0.2-0.3-0.4-0.2-0.7c0.1-0.3,0.3-0.4,0.5-0.5l3.2-0.5c0.5-0.1,0.8-0.3,1-0.7l1.4-2.9c0.1-0.2,0.3-0.4,0.6-0.4
	S203.4,181.9,203.5,182.1L203.5,182.1z M271.6,234l2,4.1c0.3,0.6,0.8,1,1.5,1.1l4.6,0.7c0.4,0.1,0.7,0.3,0.8,0.7
	c0.1,0.3,0,0.7-0.3,1l-3.3,3.2c-0.5,0.5-0.7,1.1-0.5,1.8l0.8,4.6c0.1,0.4-0.1,0.7-0.4,1c-0.3,0.2-0.7,0.3-1,0.1l-4.1-2.2
	c-0.6-0.3-1.2-0.3-1.8,0l-4.1,2.2c-0.3,0.2-0.7,0.1-1-0.1c-0.3-0.2-0.5-0.6-0.4-1l0.8-4.6c0.1-0.7-0.1-1.3-0.6-1.8l-3.3-3.2
	c-0.3-0.3-0.4-0.7-0.3-1c0.1-0.4,0.4-0.6,0.8-0.7l4.6-0.7c0.7-0.1,1.2-0.5,1.5-1.1l2.1-4.1c0.2-0.3,0.5-0.5,0.9-0.5
	C271.1,233.5,271.5,233.6,271.6,234L271.6,234z"/>
<path class="st5" d="M297.6,240.6c-3.1-20.9-11.1-39.8-22.7-55.8v0.1l2,11.5c0.2,0.9-0.2,1.8-1,2.4c-0.8,0.6-1.7,0.6-2.6,0.2
	l-10.3-5.4c-1.5-0.8-3.1-0.8-4.6,0l-10.3,5.4c-0.8,0.5-1.8,0.4-2.6-0.2c-0.8-0.6-1.1-1.5-1-2.4l1.9-11.5c0.3-1.7-0.2-3.2-1.4-4.3
	l-8.3-8.2c-0.7-0.7-0.9-1.6-0.6-2.5c0.3-0.9,1-1.5,2-1.7l11.5-1.7c1.7-0.3,3-1.2,3.7-2.7l0.8-1.6c-9.8-8.4-20.9-15.2-32.8-20.3
	l-1.8,1c-0.3,0.2-0.7,0.1-1-0.1c-0.3-0.2-0.5-0.6-0.4-1l0.2-1.2c-10.8-4.3-22.2-7.1-34-8.4l-3.9,7.9c-4.5,9.2-12.3,14.8-22.4,16.3
	l-38.1,5.6c-7,18.8-10.3,39.2-9.2,60.2l19.6,19.2c7.3,7.1,10.3,16.2,8.6,26.3l-4.7,27.8c11.2,17.5,25.9,32.5,42.9,44
	c18.8-8.7,37.2-18.1,41.7-27.8c-1.3,1.3-3.3,3.6-5.2,4.3c2.9-4.8,8.2-17.3,3.1-24.5c-0.4-0.6-0.9-1-1.3-1.3c1.1-0.4,2.4-0.3,3.6,0.1
	c-1.9-1.4-4.4-1.3-6.2-0.1c-1.2,0.8-1.3,1.7-1.7,1.8c-0.5,0-2.8-2.9-3.3-3.6l1,2.5c-2,2.5-4.4,5.2-5.2,8.3c-0.5-1.4-0.5-3-0.3-4.5
	c-1.2,4.3-0.1,7.6,1.8,11.2c1,1.8,2.1,2.7,1.8,2.8c-2.3,0.8-3.3-2.6-5.3-2.2c-1.8,0.4-2.3,5.4-3.5,5c-1.1-0.3,0.8-5.6,0.5-5.7
	c-0.8-0.3-4.3,4.9-5.3,4.4c-1-0.4,3.4-5.7,3-5.9c-0.6-0.4-5.3,3.3-6.3,2.6c-0.6-0.5,4.5-4.4,4.4-4.7c-0.2-0.5-5,0.7-4.9-0.5
	c0.1-0.8,4.6-0.8,6.9-3.3c3.9-4.2,4.5-10.3,8.4-17.2c3.7-6.4,7.4-5.7,8.7-10.3c-0.9,1.6-2.9,3-4.5,3.6c-1.7-5.2-11,6.2-23.4-2.8
	c2.8,3,6.6,4.8,10.6,5.1c-4.1,1.7-9.2,2.6-15.5-0.6c-3.6-1.8-5.4-5.3-7-8.4c-1.2,0.6-2.3,1.8-2.6,3.1c-1-1.6-0.6-3.7,1-4.7
	c-2.5-0.1-4.8-1.4-6-3.6c1.9,1.2,4.1,1.8,6.4,1.5c-1.4-4.5-2.3-9.5-0.8-13.4c1-2.7,2.8-5.2,5.1-7.4c-1.6,4.1-2,8.6-1.1,13
	c-2.4-15.5,16.1-25.7,24.6-19.7c-1.8-0.4-3.6-0.1-4.8,0.4c1.2,0.1,2.7,0.7,3.5,1.3c-1.2-0.5-3-0.6-4.1-0.3c4.6,2,4.1,5.8,8.3,6.3
	c3.7,0.4,5.1-1,5.6-0.5c0.3,0.3,0,1.9,0.4,3.4c1,0.4,2.8-0.1,3.4,0.2c1,0.5-0.1,2.6,2.2,3.7c1.6,0.8,1.7,2,1.3,3.2
	c-1.4,3.9-5.6,5.7-6.3,11.2c0.7-2.1,1.7-3.7,3-4.8c-0.3,2,3.6,3.9,5.4,1c1.6-2.6,3.1-7.1,4.6-10.6c2.1-4.9,5.6-8.4,8.1-13.3
	c-1.5,1.9-3,3.7-4.7,5.4c1.9-4.4,5.4-9.9,5.9-15.8c0.4,1,0.7,2.4,1,4.2c0.2-3.8-0.1-7.8-3.7-8.2c-1.5-0.2-3.1-0.2-3.1-0.7
	c0-0.7,4.7-0.5,4.8-1.2c0.1-0.8-5.4-1.8-5.1-2.9c0.4-1.2,5.4,1.4,5.8,0.5c0.5-1.2-5.8-5-4.5-6.3c0.7-0.8,5.2,4.5,6.3,3.3
	c0.7-0.7-1.9-5.7-0.5-6.4c0.9-0.4,1.9,2.6,2.8,5.2c3,8.8,9.3,0.5,8.9,3.9c-0.3,2.4-4.5,1.6-5.8,4.7c-2,4.6-1.8,5.2-2.6,10.1
	c-1.4,9-3.3,17.4-5.5,25.5c-0.3,1-0.6,2-0.9,3.1l-3.6-1.3c1.7,1.5,7.8,5.2,5.9,7.2c-2.2,2.4-3.9,4.2-3.1,7.9c0-1.4,0.4-2.7,1.2-3.8
	c1,2.2,5.6,6.5,7.6,10.1c0.4,0.7,0.7,1.3,1,2c-1.4-0.9-3-1.5-4.7-2c12.4,8.3,11,27.1,0.5,36.3l0,0c2.7-1.5,6.2-4.1,7.7-5.9l-0.1,0.8
	c-1,9.6,13.2,18.5,28.5,25.9C292.4,312.5,303.1,277.2,297.6,240.6L297.6,240.6z M203.5,182.1l1.4,2.9c0.2,0.4,0.6,0.7,1,0.7l3.2,0.5
	c0.3,0,0.5,0.2,0.5,0.5c0.1,0.3,0,0.5-0.2,0.7l-2.3,2.2c-0.3,0.3-0.5,0.7-0.4,1.2l0.5,3.1c0,0.3-0.1,0.5-0.3,0.7
	c-0.2,0.2-0.5,0.2-0.7,0.1l-2.8-1.5c-0.4-0.2-0.8-0.2-1.2,0l-2.8,1.5c-0.2,0.1-0.5,0.1-0.7-0.1c-0.2-0.1-0.3-0.4-0.3-0.7l0.5-3.1
	c0.1-0.5-0.1-0.9-0.4-1.2l-2.3-2.2c-0.2-0.2-0.3-0.4-0.2-0.7c0.1-0.3,0.3-0.4,0.5-0.5l3.2-0.5c0.5-0.1,0.8-0.3,1-0.7l1.4-2.9
	c0.1-0.2,0.3-0.4,0.6-0.4S203.4,181.9,203.5,182.1L203.5,182.1z M271.6,234l2,4.1c0.3,0.6,0.8,1,1.5,1.1l4.6,0.7
	c0.4,0.1,0.7,0.3,0.8,0.7c0.1,0.3,0,0.7-0.3,1l-3.3,3.2c-0.5,0.5-0.7,1.1-0.5,1.8l0.8,4.6c0.1,0.4-0.1,0.7-0.4,1
	c-0.3,0.2-0.7,0.3-1,0.1l-4.1-2.2c-0.6-0.3-1.2-0.3-1.8,0l-4.1,2.2c-0.3,0.2-0.7,0.1-1-0.1c-0.3-0.2-0.5-0.6-0.4-1l0.8-4.6
	c0.1-0.7-0.1-1.3-0.6-1.8l-3.3-3.2c-0.3-0.3-0.4-0.7-0.3-1c0.1-0.4,0.4-0.6,0.8-0.7l4.6-0.7c0.7-0.1,1.2-0.5,1.5-1.1l2.1-4.1
	c0.2-0.3,0.5-0.5,0.9-0.5C271.1,233.5,271.5,233.6,271.6,234L271.6,234z"/>
<path class="st0" d="M261.7,144.6c-4.6-30.8-23.1-56.2-48.2-70.6c-0.7,0.9-1.3,1.8-1.9,2.9l-31.3,63.2c-4.5,9.2-12.3,14.8-22.4,16.3
	l-69.8,10.3c-5.8,0.8-10.2,4.6-12,10.1c-1.8,5.5-0.4,11.2,3.7,15.3l50.4,49.3c3.7,3.6,6.2,7.6,7.7,12c10.5,3,21.6,4.2,33,3.5
	c-0.2-2.2,0-4.3,0.7-6.2c1-2.7,2.8-5.2,5.1-7.4c-1.6,4.1-2,8.6-1.1,13c-2.4-15.5,16.1-25.7,24.6-19.7c-1.8-0.4-3.6-0.1-4.8,0.4
	c1.2,0.1,2.7,0.7,3.5,1.3c-1.2-0.5-3-0.6-4.1-0.3c4.6,2,4.1,5.8,8.3,6.3c3.7,0.4,5.1-1,5.6-0.5c0.3,0.3,0.1,1.4,0.2,2.7
	c8.2-4.2,15.8-9.4,22.4-15.6c0.3-1.2,0.6-2.4,0.7-3.6c0.2,0.7,0.5,1.4,0.7,2.4l0.3-0.3c-0.1-3-0.8-5.7-3.8-6
	c-1.5-0.2-3.1-0.2-3.1-0.7c0-0.7,4.7-0.5,4.8-1.2c0.1-0.8-5.4-1.8-5.1-2.9c0.4-1.2,5.4,1.4,5.8,0.5c0.5-1.2-5.8-5-4.5-6.3
	c0.7-0.8,5.2,4.5,6.3,3.3c0.7-0.7-1.9-5.7-0.5-6.4c0.9-0.4,1.9,2.6,2.8,5.2c1.9,5.5,5,4.3,7,3.5c5.5-7.2,9.9-15.1,13.3-23.6
	l-8.1,4.2c-0.8,0.5-1.8,0.4-2.6-0.2c-0.8-0.6-1.1-1.5-1-2.4l1.9-11.5c0.3-1.7-0.2-3.2-1.4-4.3l-8.3-8.2c-0.7-0.7-0.9-1.6-0.6-2.5
	c0.3-0.9,1-1.5,2-1.7l11.5-1.7c1.7-0.3,3-1.2,3.7-2.7l5.2-10.4c0.4-0.9,1.2-1.4,2.2-1.4c0.8,0,1.5,0.3,1.9,0.9
	C262.4,150.1,262.2,147.4,261.7,144.6L261.7,144.6z M239.4,222.7l0.3-0.4C239.6,222.5,239.5,222.6,239.4,222.7L239.4,222.7z
	 M203.5,182.1l1.4,2.9c0.2,0.4,0.6,0.7,1,0.7l3.2,0.5c0.3,0,0.5,0.2,0.5,0.5c0.1,0.3,0,0.5-0.2,0.7l-2.3,2.2
	c-0.3,0.3-0.5,0.7-0.4,1.2l0.5,3.1c0,0.3-0.1,0.5-0.3,0.7c-0.2,0.2-0.5,0.2-0.7,0.1l-2.8-1.5c-0.4-0.2-0.8-0.2-1.2,0l-2.8,1.5
	c-0.2,0.1-0.5,0.1-0.7-0.1c-0.2-0.1-0.3-0.4-0.3-0.7l0.5-3.1c0.1-0.5-0.1-0.9-0.4-1.2l-2.3-2.2c-0.2-0.2-0.3-0.4-0.2-0.7
	c0.1-0.3,0.3-0.4,0.5-0.5l3.2-0.5c0.5-0.1,0.8-0.3,1-0.7l1.4-2.9c0.1-0.2,0.3-0.4,0.6-0.4S203.4,181.9,203.5,182.1L203.5,182.1z
	 M225.4,124.7l2.1,4.2c0.3,0.6,0.8,1,1.5,1l4.6,0.7c0.4,0.1,0.7,0.3,0.8,0.7c0.1,0.4,0,0.7-0.3,1l-3.3,3.3c-0.5,0.5-0.7,1-0.6,1.7
	l0.8,4.6c0.1,0.4-0.1,0.7-0.4,1c-0.3,0.2-0.7,0.3-1,0.1l-4.1-2.2c-0.6-0.3-1.2-0.3-1.8,0l-4.1,2.2c-0.3,0.2-0.7,0.1-1-0.1
	c-0.3-0.2-0.5-0.6-0.4-1l0.8-4.6c0.1-0.7-0.1-1.3-0.5-1.7l-3.3-3.3c-0.3-0.3-0.4-0.6-0.3-1c0.1-0.4,0.4-0.6,0.8-0.7l4.6-0.7
	c0.7-0.1,1.2-0.5,1.5-1l2-4.2c0.2-0.3,0.5-0.5,0.9-0.5C224.9,124.1,225.2,124.3,225.4,124.7L225.4,124.7z"/>
<path class="st6" d="M137.9,253.5c10.5,3,21.6,4.2,33,3.5c-0.2-2.2,0-4.3,0.7-6.2c1-2.7,2.8-5.2,5.1-7.4c-1.6,4.1-2,8.6-1.1,13
	c-2.4-15.5,16.1-25.7,24.6-19.7c-1.8-0.4-3.6-0.1-4.8,0.4c1.2,0.1,2.7,0.7,3.5,1.3c-1.2-0.5-3-0.6-4.1-0.3c4.6,2,4.1,5.8,8.3,6.3
	c3.7,0.4,5.1-1,5.6-0.5c0.3,0.3,0.1,1.4,0.2,2.7c8.2-4.2,15.8-9.4,22.4-15.6c0.3-1.2,0.6-2.4,0.7-3.6c0.2,0.7,0.5,1.4,0.7,2.4
	l0.3-0.3c-0.1-3-0.8-5.7-3.8-6c-1.5-0.2-3.1-0.2-3.1-0.7c0-0.7,4.7-0.5,4.8-1.2c0.1-0.8-5.4-1.8-5.1-2.9c0.4-1.2,5.4,1.4,5.8,0.5
	c0.5-1.2-5.8-5-4.5-6.3c0.7-0.8,5.2,4.5,6.3,3.3c0.7-0.7-1.9-5.7-0.5-6.4c0.9-0.4,1.9,2.6,2.8,5.2c1.9,5.5,5,4.3,7,3.5
	c5.5-7.2,9.9-15.1,13.3-23.6l-8.1,4.2c-0.8,0.5-1.8,0.4-2.6-0.2c-0.8-0.6-1.1-1.5-1-2.4l1.9-11.5c0.3-1.7-0.2-3.2-1.4-4.3l-8.3-8.2
	c-0.7-0.7-0.9-1.6-0.6-2.5c0.3-0.9,1-1.5,2-1.7l11.5-1.7c1.7-0.3,3-1.2,3.7-2.7l0.8-1.6c-9.8-8.4-20.9-15.2-32.8-20.3l-1.8,1
	c-0.3,0.2-0.7,0.1-1-0.1c-0.3-0.2-0.5-0.6-0.4-1l0.2-1.2c-10.8-4.3-22.2-7.1-34-8.4l-3.9,7.9c-4.5,9.2-12.3,14.8-22.4,16.3
	l-69.8,10.3c-5.8,0.8-10.2,4.6-12,10.1c-1.8,5.5-0.4,11.2,3.7,15.3l50.4,49.3C133.9,245,136.5,249,137.9,253.5L137.9,253.5z
	 M239.4,222.7l0.3-0.4C239.6,222.4,239.5,222.5,239.4,222.7L239.4,222.7z M203.5,182.1l1.4,2.9c0.2,0.4,0.6,0.7,1,0.7l3.2,0.5
	c0.3,0,0.5,0.2,0.5,0.5c0.1,0.3,0,0.5-0.2,0.7l-2.3,2.2c-0.3,0.3-0.5,0.7-0.4,1.2l0.5,3.1c0,0.3-0.1,0.5-0.3,0.7
	c-0.2,0.2-0.5,0.2-0.7,0.1l-2.8-1.5c-0.4-0.2-0.8-0.2-1.2,0l-2.8,1.5c-0.2,0.1-0.5,0.1-0.7-0.1c-0.2-0.1-0.3-0.4-0.3-0.7l0.5-3.1
	c0.1-0.5-0.1-0.9-0.4-1.2l-2.3-2.2c-0.2-0.2-0.3-0.4-0.2-0.7c0.1-0.3,0.3-0.4,0.5-0.5l3.2-0.5c0.5-0.1,0.8-0.3,1-0.7l1.4-2.9
	c0.1-0.2,0.3-0.4,0.6-0.4S203.4,181.9,203.5,182.1L203.5,182.1z"/>
<path class="st2" d="M261.7,144.6c-4.6-30.8-23.1-56.2-48.2-70.6c-0.7,0.9-1.3,1.8-1.9,2.9l-31.3,63.2c-4.5,9.2-12.3,14.8-22.4,16.3
	l-38.1,5.6c-7,18.8-10.3,39.2-9.2,60.2l19.6,19.2c3.7,3.6,6.2,7.6,7.7,12c10.5,3,21.6,4.3,33,3.5c-0.2-2.2,0-4.3,0.7-6.2
	c1-2.7,2.8-5.2,5.1-7.4c-1.6,4.1-2,8.6-1.1,13c-2.4-15.5,16.1-25.7,24.6-19.7c-1.8-0.4-3.6-0.1-4.8,0.4c1.2,0.1,2.7,0.7,3.5,1.3
	c-1.2-0.5-3-0.6-4.1-0.3c4.6,2,4.1,5.8,8.3,6.3c3.7,0.4,5.1-1,5.6-0.5c0.3,0.3,0.1,1.4,0.2,2.7c8.2-4.2,15.8-9.4,22.4-15.6
	c0.3-1.2,0.6-2.4,0.7-3.6c0.2,0.7,0.5,1.4,0.7,2.4l0.3-0.3c-0.1-3-0.8-5.7-3.8-6c-1.5-0.2-3.1-0.2-3.1-0.7c0-0.7,4.7-0.5,4.8-1.2
	c0.1-0.8-5.4-1.8-5.1-2.9c0.4-1.2,5.4,1.4,5.8,0.5c0.5-1.2-5.8-5-4.5-6.3c0.7-0.8,5.2,4.5,6.3,3.3c0.7-0.7-1.9-5.7-0.5-6.4
	c0.9-0.4,1.9,2.6,2.8,5.2c1.9,5.5,5,4.3,7,3.5c5.5-7.2,9.9-15.1,13.3-23.6l-8.1,4.2c-0.8,0.5-1.8,0.4-2.6-0.2
	c-0.8-0.6-1.1-1.5-1-2.4l1.9-11.5c0.3-1.7-0.2-3.2-1.4-4.3l-8.3-8.2c-0.7-0.7-0.9-1.6-0.6-2.5c0.3-0.9,1-1.5,2-1.7l11.5-1.7
	c1.7-0.3,3-1.2,3.7-2.7l5.2-10.4c0.4-0.9,1.2-1.4,2.2-1.4c0.8,0,1.5,0.3,1.9,0.9C262.4,150.1,262.2,147.4,261.7,144.6L261.7,144.6z
	 M239.4,222.7l0.3-0.4C239.6,222.5,239.5,222.6,239.4,222.7L239.4,222.7z M203.5,182.1l1.4,2.9c0.2,0.4,0.6,0.7,1,0.7l3.2,0.5
	c0.3,0,0.5,0.2,0.5,0.5c0.1,0.3,0,0.5-0.2,0.7l-2.3,2.2c-0.3,0.3-0.5,0.7-0.4,1.2l0.5,3.1c0,0.3-0.1,0.5-0.3,0.7
	c-0.2,0.2-0.5,0.2-0.7,0.1l-2.8-1.5c-0.4-0.2-0.8-0.2-1.2,0l-2.8,1.5c-0.2,0.1-0.5,0.1-0.7-0.1c-0.2-0.1-0.3-0.4-0.3-0.7l0.5-3.1
	c0.1-0.5-0.1-0.9-0.4-1.2l-2.3-2.2c-0.2-0.2-0.3-0.4-0.2-0.7c0.1-0.3,0.3-0.4,0.5-0.5l3.2-0.5c0.5-0.1,0.8-0.3,1-0.7l1.4-2.9
	c0.1-0.2,0.3-0.4,0.6-0.4S203.4,181.9,203.5,182.1L203.5,182.1z M225.4,124.7l2.1,4.2c0.3,0.6,0.8,1,1.5,1l4.6,0.7
	c0.4,0.1,0.7,0.3,0.8,0.7c0.1,0.4,0,0.7-0.3,1l-3.3,3.3c-0.5,0.5-0.7,1-0.6,1.7l0.8,4.6c0.1,0.4-0.1,0.7-0.4,1
	c-0.3,0.2-0.7,0.3-1,0.1l-4.1-2.2c-0.6-0.3-1.2-0.3-1.8,0l-4.1,2.2c-0.3,0.2-0.7,0.1-1-0.1c-0.3-0.2-0.5-0.6-0.4-1l0.8-4.6
	c0.1-0.7-0.1-1.3-0.5-1.7l-3.3-3.3c-0.3-0.3-0.4-0.6-0.3-1c0.1-0.4,0.4-0.6,0.8-0.7l4.6-0.7c0.7-0.1,1.2-0.5,1.5-1l2-4.2
	c0.2-0.3,0.5-0.5,0.9-0.5C224.9,124.1,225.2,124.3,225.4,124.7L225.4,124.7z"/>
<path class="st7" d="M119.8,162l-0.5,1.3l0,0.1l-0.5,1.5l-0.3,1l-0.4,1.2l-0.6,1.8l-0.4,1.3l-0.5,1.7l-0.6,2l-0.3,1l-0.6,2.2
	l-0.2,0.8l-0.6,2.3l-0.2,0.9l-0.5,2.3l-0.2,0.8l-0.5,2.3l-0.2,1l-0.4,2.1l-0.2,1.2l-0.3,2.1l-0.1,1.1l-0.3,2.4l-0.1,0.5l-0.3,2.5
	l-0.1,1l-0.2,2.3l-0.1,0.9c-0.1,0.9-0.1,1.8-0.2,2.6l0,0.6c0,0.9-0.1,1.9-0.1,2.8v0.5l-0.1,2.7v0.6c0,1,0,2,0,2.9v0.3
	c0,1,0.1,2,0.1,2.9v0.3l0,0.3c0,0.7,0.1,1.4,0.1,2.1l19.6,19.2c3.7,3.6,6.2,7.6,7.7,12c10.5,3,21.6,4.3,33,3.5
	c-0.2-2.2,0-4.3,0.7-6.2c1-2.7,2.8-5.2,5.1-7.4c-1.6,4.1-2,8.6-1.1,13c-2.4-15.5,16.1-25.7,24.6-19.7c-1.8-0.4-3.6-0.1-4.8,0.4
	c1.2,0.1,2.7,0.7,3.5,1.3c-1.2-0.5-3-0.6-4.1-0.3c4.6,2,4.1,5.8,8.3,6.3c3.7,0.4,5.1-1,5.6-0.5c0.3,0.3,0.1,1.4,0.2,2.7
	c8.2-4.2,15.8-9.4,22.4-15.6c0.3-1.2,0.6-2.4,0.7-3.6c0.2,0.7,0.5,1.4,0.7,2.4l0.3-0.3c-0.1-3-0.8-5.7-3.8-6
	c-1.5-0.2-3.1-0.2-3.1-0.7c0-0.7,4.7-0.5,4.8-1.2c0.1-0.8-5.4-1.8-5.1-2.9c0.4-1.2,5.4,1.4,5.8,0.5c0.5-1.2-5.8-5-4.5-6.3
	c0.7-0.8,5.2,4.5,6.3,3.3c0.7-0.7-1.9-5.7-0.5-6.4c0.9-0.4,1.9,2.6,2.8,5.2c1.9,5.5,5,4.3,7,3.5c5.5-7.2,9.9-15.1,13.3-23.6
	l-8.1,4.2c-0.8,0.5-1.8,0.4-2.6-0.2c-0.8-0.6-1.1-1.5-1-2.4l1.9-11.5c0.3-1.7-0.2-3.2-1.4-4.3l-8.3-8.2c-0.7-0.7-0.9-1.6-0.6-2.5
	c0.3-0.9,1-1.5,2-1.7l11.5-1.7c1.7-0.3,3-1.2,3.7-2.7l0.8-1.6c-9.8-8.4-20.9-15.2-32.8-20.3l-1.8,1c-0.3,0.2-0.7,0.1-1-0.1
	c-0.3-0.2-0.5-0.6-0.4-1l0.2-1.2c-10.8-4.3-22.2-7.1-34-8.4l-3.9,7.9c-4.5,9.2-12.3,14.8-22.4,16.3L119.8,162z M239.4,222.7l0.3-0.4
	C239.6,222.4,239.5,222.5,239.4,222.7L239.4,222.7z M203.5,182.1l1.4,2.9c0.2,0.4,0.6,0.7,1,0.7l3.2,0.5c0.3,0,0.5,0.2,0.5,0.5
	c0.1,0.3,0,0.5-0.2,0.7l-2.3,2.2c-0.3,0.3-0.5,0.7-0.4,1.2l0.5,3.1c0,0.3-0.1,0.5-0.3,0.7c-0.2,0.2-0.5,0.2-0.7,0.1l-2.8-1.5
	c-0.4-0.2-0.8-0.2-1.2,0l-2.8,1.5c-0.2,0.1-0.5,0.1-0.7-0.1c-0.2-0.1-0.3-0.4-0.3-0.7l0.5-3.1c0.1-0.5-0.1-0.9-0.4-1.2l-2.3-2.2
	c-0.2-0.2-0.3-0.4-0.2-0.7c0.1-0.3,0.3-0.4,0.5-0.5l3.2-0.5c0.5-0.1,0.8-0.3,1-0.7l1.4-2.9c0.1-0.2,0.3-0.4,0.6-0.4
	S203.4,181.9,203.5,182.1L203.5,182.1z"/>
<path class="st4" d="M276.4,362c-0.7-4.3-4.6-7.2-8.8-6.5c-4.3,0.6-7.2,4.6-6.5,8.8c0.7,4.3,4.6,7.2,8.8,6.5
	C274.2,370.2,277.1,366.3,276.4,362L276.4,362z"/>
<path class="st7" d="M313.3,126.2c-0.6-4.3-4.6-7.2-8.8-6.5c-4.3,0.7-7.2,4.6-6.5,8.8c0.7,4.3,4.6,7.2,8.8,6.5
	C311,134.5,313.9,130.5,313.3,126.2L313.3,126.2z"/>
</svg>
