<svg width="20" height="20" viewBox="0 0 20 20" fill="none" xmlns="http://www.w3.org/2000/svg">
<g id="&#208;&#157;&#208;&#176;&#209;&#136;&#208;&#187;&#208;&#184; &#208;&#180;&#208;&#181;&#209;&#136;&#208;&#181;&#208;&#178;&#208;&#187;&#208;&#181;? &#208;&#161;&#208;&#189;&#208;&#184;&#208;&#183;&#208;&#184;&#208;&#188; &#209;&#134;&#208;&#181;&#208;&#189;&#209;&#131;">
<path id="Rectangle 924" d="M3.33301 10.0002C3.33301 9.07969 4.0792 8.3335 4.99967 8.3335H12.4997C13.4202 8.3335 14.1663 9.07969 14.1663 10.0002V10.0002C14.1663 10.9206 13.4201 11.6668 12.4997 11.6668H4.99967C4.0792 11.6668 3.33301 10.9206 3.33301 10.0002V10.0002Z" stroke="#009B9A" stroke-width="1.4"/>
<path id="Vector" d="M9.99967 14.9998C9.99967 16.8408 11.4921 18.3332 13.333 18.3332C15.174 18.3332 16.6663 16.8408 16.6663 14.9998C16.6663 13.1589 15.174 11.6665 13.333 11.6665C13.1669 11.6665 13.0036 11.6787 12.844 11.7021M9.99967 14.9998C9.99967 13.325 11.2349 11.9387 12.844 11.7021M9.99967 14.9998H4.99967C4.0792 14.9998 3.33301 14.2536 3.33301 13.3332C3.33301 12.4127 4.0792 11.6665 4.99967 11.6665H12.4997C12.6177 11.6665 12.7329 11.6788 12.844 11.7021" stroke="#009B9A" stroke-width="1.4"/>
<path id="Vector_2" d="M11.667 4.51201L10.5896 5.58942C10.2641 5.91486 9.73651 5.91485 9.41107 5.58942L8.33366 4.51201M10.0003 1.66683L10.0003 5.34534" stroke="#009B9A" stroke-width="1.4" stroke-linecap="round"/>
</g>
</svg>
