<svg width="20" height="20" viewBox="0 0 20 20" fill="none" xmlns="http://www.w3.org/2000/svg">
<path d="M10.8965 10.8335H8.33333C7.41286 10.8335 6.66667 11.5797 6.66667 12.5002C6.66667 13.4206 7.41286 14.1668 8.33333 14.1668H15.8333C16.7538 14.1668 17.5 14.913 17.5 15.8335C17.5 16.754 16.7538 17.5002 15.8333 17.5002H2.5" stroke="#FF773C" stroke-width="1.4" stroke-linecap="round"/>
<path d="M14.3892 5.2846C14.3892 5.89063 13.898 6.38191 13.2919 6.38191C12.6859 6.38191 12.1946 5.89063 12.1946 5.2846C12.1946 4.67858 12.6859 4.1873 13.2919 4.1873C13.898 4.1873 14.3892 4.67858 14.3892 5.2846Z" stroke="#FF773C" stroke-width="1.4"/>
<path d="M16.5838 5.2846C16.5838 7.10268 14.3892 9.67383 13.2919 9.67383C12.1946 9.67383 10 7.10268 10 5.2846C10 3.46652 11.4738 1.99268 13.2919 1.99268C15.11 1.99268 16.5838 3.46652 16.5838 5.2846Z" stroke="#FF773C" stroke-width="1.4"/>
</svg>
