<svg width="17" height="18" viewBox="0 0 17 18" fill="none" xmlns="http://www.w3.org/2000/svg">
<g id="Group 33">
<path id="Vector" d="M4.66903 9.24089L6.50236 10.6159C7.39125 11.2826 8.61347 11.2826 9.50236 10.6159L11.3357 9.24089M9.40641 5.07422H3.83569C2.45498 5.07422 1.33569 6.19351 1.33569 7.57422V14.2409C1.33569 15.6216 2.45498 16.7409 3.83569 16.7409H12.169C13.5497 16.7409 14.669 15.6216 14.669 14.2409V7.57422C14.669 7.37435 14.669 7.21243 14.669 7.21243" stroke="#009B9A" stroke-width="1.4" stroke-linecap="round" stroke-linejoin="round"/>
<path id="Vector_2" d="M13.4161 3.17367C13.4161 2.78707 13.1027 2.47367 12.7161 2.47367C12.3295 2.47367 12.0161 2.78707 12.0161 3.17367H13.4161ZM12.7161 4.42367H12.0161C12.0161 4.81026 12.3295 5.12367 12.7161 5.12367V4.42367ZM13.9661 5.12367C14.3527 5.12367 14.6661 4.81026 14.6661 4.42367C14.6661 4.03707 14.3527 3.72367 13.9661 3.72367V5.12367ZM15.3495 4.42367C15.3495 5.87802 14.1705 7.057 12.7161 7.057V8.457C14.9437 8.457 16.7495 6.65121 16.7495 4.42367H15.3495ZM12.7161 7.057C11.2618 7.057 10.0828 5.87802 10.0828 4.42367H8.68281C8.68281 6.65121 10.4886 8.457 12.7161 8.457V7.057ZM10.0828 4.42367C10.0828 2.96932 11.2618 1.79033 12.7161 1.79033V0.390332C10.4886 0.390332 8.68281 2.19612 8.68281 4.42367H10.0828ZM12.7161 1.79033C14.1705 1.79033 15.3495 2.96932 15.3495 4.42367H16.7495C16.7495 2.19612 14.9437 0.390332 12.7161 0.390332V1.79033ZM12.0161 3.17367V4.42367H13.4161V3.17367H12.0161ZM12.7161 5.12367H13.9661V3.72367H12.7161V5.12367Z" fill="#009B9A"/>
</g>
</svg>
