<svg width="17" height="18" viewBox="0 0 17 18" fill="none" xmlns="http://www.w3.org/2000/svg">
<path d="M4.66903 9.24089L6.50236 10.6159C7.39125 11.2826 8.61347 11.2826 9.50236 10.6159L11.3357 9.24089M9.40641 5.07422H3.83569C2.45498 5.07422 1.33569 6.19351 1.33569 7.57422V14.2409C1.33569 15.6216 2.45498 16.7409 3.83569 16.7409H12.169C13.5497 16.7409 14.669 15.6216 14.669 14.2409V7.57422C14.669 7.37435 14.669 7.21243 14.669 7.21243" stroke="#FF773C" stroke-width="1.5" stroke-linecap="round" stroke-linejoin="round"/>
<path d="M13.4661 3.17367C13.4661 2.75945 13.1304 2.42367 12.7161 2.42367C12.3019 2.42367 11.9661 2.75945 11.9661 3.17367H13.4661ZM12.7161 4.42367H11.9661C11.9661 4.83788 12.3019 5.17367 12.7161 5.17367V4.42367ZM13.9661 5.17367C14.3804 5.17367 14.7161 4.83788 14.7161 4.42367C14.7161 4.00945 14.3804 3.67367 13.9661 3.67367V5.17367ZM15.2995 4.42367C15.2995 5.8504 14.1429 7.007 12.7161 7.007V8.507C14.9713 8.507 16.7995 6.67883 16.7995 4.42367H15.2995ZM12.7161 7.007C11.2894 7.007 10.1328 5.8504 10.1328 4.42367H8.63281C8.63281 6.67883 10.461 8.507 12.7161 8.507V7.007ZM10.1328 4.42367C10.1328 2.99693 11.2894 1.84033 12.7161 1.84033V0.340332C10.461 0.340332 8.63281 2.1685 8.63281 4.42367H10.1328ZM12.7161 1.84033C14.1429 1.84033 15.2995 2.99693 15.2995 4.42367H16.7995C16.7995 2.1685 14.9713 0.340332 12.7161 0.340332V1.84033ZM11.9661 3.17367V4.42367H13.4661V3.17367H11.9661ZM12.7161 5.17367H13.9661V3.67367H12.7161V5.17367Z" fill="#FF773C"/>
</svg>
