<svg width="11" height="20" viewBox="0 0 11 20" fill="none" xmlns="http://www.w3.org/2000/svg">
<g id="people">
<path id="Vector" d="M5.5 5.23529C6.74264 5.23529 7.75 4.28719 7.75 3.11765C7.75 1.9481 6.74264 1 5.5 1C4.25736 1 3.25 1.9481 3.25 3.11765C3.25 4.28719 4.25736 5.23529 5.5 5.23529ZM5.5 5.23529C7.98528 5.23529 10 7.1315 10 9.47059V11.5882C10 12.173 9.49632 12.6471 8.875 12.6471C8.25368 12.6471 7.75 13.1211 7.75 13.7059V16.8824C7.75 18.0519 6.74264 19 5.5 19C4.25736 19 3.25 18.0519 3.25 16.8824V13.7059C3.25 13.1211 2.74632 12.6471 2.125 12.6471C1.50368 12.6471 1 12.173 1 11.5882V9.47059C1 7.1315 3.01472 5.23529 5.5 5.23529Z" stroke="#009B9A" stroke-width="1.4" stroke-linejoin="round"/>
</g>
</svg>
