<svg width="20" height="20" viewBox="0 0 20 20" fill="none" xmlns="http://www.w3.org/2000/svg">
<g id="&#208;&#147;&#208;&#190;&#209;&#129;. &#208;&#186;&#208;&#190;&#208;&#188;&#208;&#191;&#208;&#181;&#208;&#189;&#209;&#129;&#208;&#176;&#209;&#134;&#208;&#184;&#209;&#143;">
<path id="Vector" d="M18.3337 4.16667H17.6337H18.3337ZM18.3337 12.5H19.0337H18.3337ZM1.66699 12.5H2.36699H1.66699ZM1.66699 4.16667L0.966993 4.16667L1.66699 4.16667ZM16.667 2.5V1.8V2.5ZM16.667 14.1667V13.4667V14.1667ZM16.2503 13.4667C15.8637 13.4667 15.5503 13.7801 15.5503 14.1667C15.5503 14.5533 15.8637 14.8667 16.2503 14.8667V13.4667ZM7.91699 14.8667C8.30359 14.8667 8.61699 14.5533 8.61699 14.1667C8.61699 13.7801 8.30359 13.4667 7.91699 13.4667V14.8667ZM3.33366 14.1667V14.8667V14.1667ZM5.00033 5.13333C4.61373 5.13333 4.30033 5.44673 4.30033 5.83333C4.30033 6.21993 4.61373 6.53333 5.00033 6.53333V5.13333ZM15.0003 6.53333C15.3869 6.53333 15.7003 6.21993 15.7003 5.83333C15.7003 5.44673 15.3869 5.13333 15.0003 5.13333V6.53333ZM5.00033 8.46667C4.61373 8.46667 4.30033 8.78007 4.30033 9.16667C4.30033 9.55327 4.61373 9.86667 5.00033 9.86667V8.46667ZM8.33366 9.86667C8.72026 9.86667 9.03366 9.55327 9.03366 9.16667C9.03366 8.78007 8.72026 8.46667 8.33366 8.46667V9.86667ZM11.5337 14.5833C11.5337 14.1967 11.2203 13.8833 10.8337 13.8833C10.4471 13.8833 10.1337 14.1967 10.1337 14.5833H11.5337ZM10.8337 17.5H10.1337C10.1337 17.7426 10.2593 17.9679 10.4656 18.0955C10.672 18.223 10.9297 18.2346 11.1467 18.1261L10.8337 17.5ZM12.5003 16.6667L12.8134 16.0406C12.6163 15.942 12.3843 15.942 12.1873 16.0406L12.5003 16.6667ZM14.167 17.5L13.8539 18.1261C14.0709 18.2346 14.3286 18.223 14.535 18.0955C14.7414 17.9679 14.867 17.7426 14.867 17.5H14.167ZM14.867 14.5833C14.867 14.1967 14.5536 13.8833 14.167 13.8833C13.7804 13.8833 13.467 14.1967 13.467 14.5833H14.867ZM17.6337 4.16667V12.5H19.0337V4.16667H17.6337ZM2.36699 12.5L2.36699 4.16667L0.966993 4.16667L0.966992 12.5H2.36699ZM3.33366 3.2L16.667 3.2V1.8L3.33366 1.8L3.33366 3.2ZM16.667 13.4667H16.2503V14.8667H16.667V13.4667ZM7.91699 13.4667H3.33366V14.8667H7.91699V13.4667ZM2.36699 4.16667C2.36699 3.63279 2.79978 3.2 3.33366 3.2L3.33366 1.8C2.02658 1.8 0.966993 2.85959 0.966993 4.16667L2.36699 4.16667ZM0.966992 12.5C0.966992 13.8071 2.02659 14.8667 3.33366 14.8667V13.4667C2.79978 13.4667 2.36699 13.0339 2.36699 12.5H0.966992ZM17.6337 12.5C17.6337 13.0339 17.2009 13.4667 16.667 13.4667V14.8667C17.9741 14.8667 19.0337 13.8071 19.0337 12.5H17.6337ZM19.0337 4.16667C19.0337 2.85959 17.9741 1.8 16.667 1.8V3.2C17.2009 3.2 17.6337 3.63279 17.6337 4.16667H19.0337ZM14.3003 12.5C14.3003 13.4941 13.4944 14.3 12.5003 14.3V15.7C14.2676 15.7 15.7003 14.2673 15.7003 12.5H14.3003ZM12.5003 14.3C11.5062 14.3 10.7003 13.4941 10.7003 12.5H9.30033C9.30033 14.2673 10.733 15.7 12.5003 15.7V14.3ZM10.7003 12.5C10.7003 11.5059 11.5062 10.7 12.5003 10.7V9.3C10.733 9.3 9.30033 10.7327 9.30033 12.5H10.7003ZM12.5003 10.7C13.4944 10.7 14.3003 11.5059 14.3003 12.5H15.7003C15.7003 10.7327 14.2676 9.3 12.5003 9.3V10.7ZM5.00033 6.53333H15.0003V5.13333H5.00033V6.53333ZM5.00033 9.86667H8.33366V8.46667H5.00033V9.86667ZM10.1337 14.5833V17.5H11.5337V14.5833H10.1337ZM11.1467 18.1261L12.8134 17.2928L12.1873 16.0406L10.5206 16.8739L11.1467 18.1261ZM12.1873 17.2928L13.8539 18.1261L14.48 16.8739L12.8134 16.0406L12.1873 17.2928ZM14.867 17.5V14.5833H13.467V17.5H14.867Z" fill="#009B9A"/>
</g>
</svg>
