<svg width="20" height="20" viewBox="0 0 20 20" fill="none" xmlns="http://www.w3.org/2000/svg">
<g id="Star Solid Full">
<path id="Vector" d="M9.75716 1.98017C9.95402 1.56211 10.5228 1.56211 10.7197 1.98018L12.9526 6.72217C13.0308 6.88818 13.1819 7.00325 13.3567 7.02987L18.3498 7.79028C18.79 7.85732 18.9657 8.42429 18.6472 8.74971L15.0342 12.4408C14.9077 12.5701 14.85 12.7562 14.8799 12.9387L15.7328 18.1507C15.808 18.6102 15.3478 18.9606 14.9541 18.7436L10.4882 16.2829C10.3318 16.1967 10.145 16.1967 9.98868 16.2829L5.52278 18.7436C5.12905 18.9606 4.66888 18.6102 4.74408 18.1507L5.59699 12.9387C5.62685 12.7562 5.56913 12.5701 5.44264 12.4408L1.82965 8.74971C1.51112 8.42429 1.68689 7.85732 2.12709 7.79028L7.12012 7.02987C7.29492 7.00325 7.44603 6.88818 7.52421 6.72217L9.75716 1.98017Z" fill="url(#paint0_linear_287_24714)"/>
</g>
<defs>
<linearGradient id="paint0_linear_287_24714" x1="2.00024" y1="9.00012" x2="18.0002" y2="9.00012" gradientUnits="userSpaceOnUse">
<stop stop-color="#E20E7D"/>
<stop offset="0.234375" stop-color="#6F3FB5"/>
<stop offset="0.851358" stop-color="#009B9A"/>
</linearGradient>
</defs>
</svg>
